<svg xmlns="http://www.w3.org/2000/svg">
	<symbol id=":accounts" viewBox="0 0 512 512">
		<path d="M288 306.922v-14.768c19.129-16.6 32-47.621 32-83.154 0-53.02-28.653-96-64-96-35.346 0-64 42.98-64 96 0 35.535 12.872 66.558 32.003 83.156v14.766c-73.031 8.895-128 47.634-128 94.078h319.997c0-46.444-54.969-85.184-128-94.078zm-127.16-17.116c-13.354-8.158-30.188-13.814-48.839-15.902v-7.341c9.562-8.301 16-23.799 16-41.563 0-26.51-14.327-48-32-48s-32 21.49-32 48c0 17.764 6.4 33.262 16 41.563v7.327c-45.402 5.079-80 31.397-80 63.109h89.713c17.021-19.613 41.61-35.942 71.126-47.193zm271.16-15.916v-7.327c9.563-8.301 16-23.799 16-41.563 0-26.51-14.327-48-32-48s-32 21.49-32 48c0 17.764 6.4 33.262 16 41.563v7.341c-18.65 2.088-35.485 7.744-48.84 15.902 29.516 11.251 54.104 27.58 71.127 47.193h89.713c0-31.712-34.597-58.03-80-63.109z"/>
	</symbol>

	<symbol id=":affordability" viewBox="0 0 512 512">
		<path d="M192 32h-160c-17.6 0-32 14.4-32 32v160c0 17.6 14.398 32 32 32h160c17.6 0 32-14.4 32-32v-160c0-17.6-14.4-32-32-32zm0 128h-160v-32h160v32zm256-128h-160c-17.602 0-32 14.4-32 32v416c0 17.6 14.398 32 32 32h160c17.6 0 32-14.4 32-32v-416c0-17.6-14.4-32-32-32zm0 288h-160v-32h160v32zm0-96h-160v-32h160v32zm-256 64h-160c-17.6 0-32 14.4-32 32v160c0 17.6 14.398 32 32 32h160c17.6 0 32-14.4 32-32v-160c0-17.6-14.4-32-32-32zm0 128h-64v64h-32v-64h-64v-32h64v-64h32v64h64v32z"/>
	</symbol>

	<symbol id=":authorship" viewBox="0 0 512 512">
		<path d="M377.654 25.985h-354.56c-13.343 0-24.172 10.83-24.172 24.177v306.211c0 13.343 10.83 24.172 24.172 24.172h111.252v-24.177h-111.252v-265.915h354.56v34.997h24.172v-75.287c0-13.353-10.814-24.178-24.172-24.178zm-104.758 48.35c-8.888 0-16.113-7.23-16.113-16.118s7.23-16.113 16.113-16.113 16.118 7.2 16.118 16.113-7.23 16.118-16.118 16.118zm44.323 0c-8.888 0-16.118-7.23-16.118-16.118s7.23-16.113 16.118-16.113 16.118 7.2 16.118 16.113c-.005 8.888-7.235 16.118-16.118 16.118zm44.317 0c-8.888 0-16.113-7.23-16.113-16.118s7.225-16.113 16.113-16.113 16.118 7.2 16.118 16.113-7.23 16.118-16.118 16.118zm127.365 51.115h-354.555c-13.348 0-24.172 10.824-24.172 24.172v306.211c0 13.343 10.83 24.167 24.172 24.167h354.56c13.358 0 24.172-10.83 24.172-24.167v-306.211c.001-13.348-10.819-24.172-24.177-24.172zm-60.436 16.113c8.888 0 16.118 7.2 16.118 16.113s-7.23 16.118-16.118 16.118-16.113-7.23-16.113-16.118 7.23-16.113 16.113-16.113zm-44.312 0c8.883 0 16.113 7.2 16.113 16.113s-7.23 16.118-16.113 16.118c-8.893 0-16.123-7.23-16.123-16.118s7.23-16.113 16.123-16.113zm104.748 314.275h-354.555v-265.925h354.56v265.926h-.005zm-16.113-282.039c-8.888 0-16.113-7.23-16.113-16.118 0-8.888 7.225-16.113 16.113-16.113s16.118 7.2 16.118 16.113-7.235 16.118-16.118 16.118z"/>
	</symbol>

	<symbol id=":award" viewBox="0 0 512 512">
		<path d="M397.34 311.484c1.097-3.553 1.85-7.5 1.883-12.085.295-20.076 9.023-35.191 26.25-45.442 17.227-10.267 20.944-24.137 11.168-41.61-9.809-17.489-9.809-34.994 0-52.483 9.793-17.489 6.059-31.343-11.168-41.61-17.227-10.235-25.955-25.398-26.25-45.426-.278-20.011-10.398-30.196-30.442-30.442-20.027-.262-35.158-9.007-45.442-26.234-10.234-17.227-24.088-20.961-41.561-11.135-17.522 9.76-35.027 9.76-52.483 0-17.473-9.825-31.359-6.092-41.643 11.135-10.218 17.227-25.382 25.972-45.442 26.234-20.027.246-30.196 10.415-30.458 30.426-.278 20.044-9.007 35.191-26.234 45.426-17.194 10.284-20.928 24.137-11.152 41.627 9.8 17.473 9.8 34.978 0 52.483-9.793 17.473-6.043 31.343 11.168 41.61 17.227 10.235 25.955 25.366 26.234 45.442.066 3.635.786 6.6 1.5 9.596l-79.029 155.272 66.01-7.385 36.534 54.891s47.898-99.891 67.598-140.535c7.254 2.4 15.54 1.2 24.891-4.012 17.456-9.809 34.962-9.809 52.483 0 10 5.5 18.553 6.6 26.103 3.488l81.124 139.487 22.795-59.132 64.994 8.433-79.438-148.019zm-141.844-5.797c-67.86 0-122.898-55.005-122.898-122.849 0-67.876 55.038-122.915 122.898-122.915 67.876 0 122.898 55.038 122.898 122.915 0 67.844-55.038 122.849-122.898 122.849zm.016-218.334c53.359 0 96.615 43.256 96.615 96.615s-43.256 96.615-96.615 96.615-96.615-43.256-96.615-96.615 43.256-96.615 96.615-96.615z"/>
	</symbol>

	<symbol id=":book" viewBox="0 0 512 512">
		<path d="M448 64v416h-336c-26.511 0-48-21.49-48-48 0-26.509 21.489-48 48-48h304v-384h-320c-35.199 0-64 28.8-64 64v384c0 35.2 28.801 64 64 64h384v-448h-32zm-320 352h288v32h-288z"/>
	</symbol>

	<symbol id=":bookmark" viewBox="0 0 512 512">
		<path d="M96 0v512l160-160 160 160v-512z"/>
	</symbol>

	<symbol id=":bookmark-hollow" viewBox="0 0 512 512">
		<path d="M96 0v512l160-160 160 160v-512h-320zm288 434.745l-128-128-128 128v-402.745h256v402.745z"/>
	</symbol>

	<symbol id=":books" viewBox="0 0 512 512">
		<path d="M288.117 144.635l121.356-40.716 101.8 303.392-121.356 40.716zm-288.117 303.365h128v-352h-128v352zm32-288h64v32h-64v-32zm128 288h128v-352h-128v352zm32-288h64v32h-64v-32z"/>
	</symbol>

	<symbol id=":business" viewBox="0 0 512 512">
		<path d="M448 192c0-106-86-192-192-192s-192 86-192 192c0 71.1 38.6 133.1 96 166.3v89.7l64 64h64l64-64v-89.7c57.4-33.2 96-95.2 96-166.3zm-144 256h-96c-8.8 0-16-7.2-16-16s7.2-16 16-16h96c8.8 0 16 7.2 16 16s-7.2 16-16 16zm16-109.3v-146.7c17.7 0 32-14.3 32-32s-14.3-32-32-32-32 14.3-32 32v188.8c-10.4 2.1-21.1 3.2-32 3.2s-21.6-1.1-32-3.2v-188.8c0-17.7-14.3-32-32-32s-32 14.3-32 32 14.3 32 32 32v146.7c-18.1-7.9-34.8-19.2-49.1-33.6-30.3-30.2-46.9-70.4-46.9-113.1s16.6-82.9 46.9-113.1c30.2-30.3 70.4-46.9 113.1-46.9 42.7 0 83 16.6 113.1 47 30.3 30.2 47 70.4 47 113.1 0 42.7-16.6 82.9-46.8 113.1-14.5 14.4-31.1 25.7-49.2 33.6z"/>
	</symbol>

	<symbol id=":calculator" viewBox="0 0 512 512">
		<path d="M384 0h-256c-17.6 0-32 14.4-32 32v448c0 17.6 14.4 32 32 32h256c17.6 0 32-14.4 32-32v-448c0-17.6-14.4-32-32-32zm-192 480h-64v-64h64v64zm0-96h-64v-64h64v64zm0-96h-64v-64h64v64zm96 192h-64v-64h64v64zm0-96h-64v-64h64v64zm0-96h-64v-64h64v64zm96 192h-64v-64h64v64zm0-96h-64v-64h64v64zm0-96h-64v-64h64v64zm0-96h-256v-160h256v160z"/>
	</symbol>

	<symbol id=":calendar" viewBox="0 0 512 512">
		<path d="M416 96h-32v64h-96v-64h-96v64h-96v-64h-32c-17.6 0-32 14.4-32 32v352c0 17.6 14.4 32 32 32h352c17.6 0 32-14.4 32-32v-352c0-17.6-14.4-32-32-32zm-288 384h-63.943l-.057-.058v-63.942h64v64zm0-96h-64v-64h64v64zm0-96h-64v-64h64v64zm96 192h-64v-64h64v64zm0-96h-64v-64h64v64zm0-96h-64v-64h64v64zm96 192h-64v-64h64v64zm0-96h-64v-64h64v64zm0-96h-64v-64h64v64zm96 191.942l-.058.058h-63.942v-64h64v63.942zm0-95.942h-64v-64h64v64zm0-96h-64v-64h64v64zm-256-224c0-8.836-7.164-16-16-16s-16 7.164-16 16v64h32v-64zm192 0c0-8.836-7.164-16-16-16s-16 7.164-16 16v64h32v-64z"/>
	</symbol>

	<symbol id=":california" viewBox="0 0 512 512">
		<path d="M135.8 0l137.5 35.2-29.6 139.3 147.4 232.7 1.5 3.1v10l.8 3.1.8 3.8 1.5 3.1 2.3 3.1.8 2.3 1.5 2.3 2.3 1.5 1.5 3.1v1.5l-1.5 1.5-6.1 3.1-7.6 1.5-3 5.4-3 6.1-2.3 9.9-1.5 13-3 6.9-4.6 2.3v3.8l4.6 1.5 2.3 3.1v3.1l-3 1.5-6.4 5.2h-3v-5.4l-98.8-11.5v-5.4l1.5-4.6-2.3-19.9-4.6-10.7-6.1-5.4v-2.3l-.8-9.2-5.3-3.1-6.8-7.7-3.8-1.5v-3.8l-7.6-5.4-13.7-12.2-3-3.1-6.1-2.3-19.8-18.4-2.3-2.3-6.8-3.8h-5.3l-3.8-2.3-2.3-3.8-2.3-5.4 1.5-4.6 6.1-8.4-1.5-6.9-1.5-6.9-3-6.9-12.9-16.8-3-3.8v-9.2l-3-4.6-3-2.3-3-3.1v-8.4l-1.5-3.8-2.3-5.4-.8-3.1v-3.1l.8-3.8 1.5-1.5 9.1-1.5 4.6-3.1v-1.5l-6.1-4.6-4.6-7.7-3-6.9-1.5-6.9v-9.9l-1.5-6.9v-2.3l1.5-3.1 3.8 2.3 4.6 3.1 1.5 3.1 2.3.8h3.8v-10.7l-3-3.1-1.5-4.6v-3.8l4.6.8 4.6 3.1v-5.4l-1.5-4.6-5.3-3.1-3.8-2.3-5.3-1.5h-2.3v3.1l.8 2.3v3.1l.8 4.6-1.5.8-3 3.1h-3l-3-2.3-3-1.5v-5.4l-3-4.6-1.5-.8-1.5-3.1v-8.4h1.5l3-1.5.8-4.6-3.8-6.9-3.8-3.8-.8-3.1v-4.6l-2.3-7.7-2.3-6.1-2.8-5.2v-10.7l3-9.2.8-8.4 1.5-3.1-1.5-6.1-4.6-6.9-1.5-3.1v-4.5l-3-4.6v-7.7l3-13 2.3-5.4 1.5-3.1h1.5l1.5 3.1.8 3.8.8 1.5h4.6l1.5-4.6 3-13.8 3.8-13 3-13.8.8-4.4z"/>
	</symbol>

	<symbol id=":ces" viewBox="0 0 512 512">
		<path d="M224.1 512c9.7-201.2 49.3-444-51.2-488.5 9.7-1.9 52.2 9.7 84 70.6 36.7-82.2 99.5-97.7 142.9-89-150.7 10.6-124.6 55.8-99.5 506.5l-76.2.4zm8.4-122.5c1.2-17.6-24.8-50.6-77-72.9-52.1-22.3-96-47.9-91-76.9 4.7-26.8 25.3-40.1 25.3-40.1s-18.2 21.7-17.4 41.6c1 26.6 42.5 45.5 80.2 57.1 37.7 11.6 90.8 47.2 90.8 47.2s-12.1 61.6-10.9 44zm-107.6-169.5s-1.7-5.9-7.1-5.9c-5.4 0-12.1 9.6-19.7 7.5-7.5-2.1-7.5-9.6-10-10.5-2.5-.8-9.6 1.7-9.6 1.7s6.3-16.4 24.3-22.2c13-4.2 21.2.6 24 3.8 6.6 8-1.8 25.6-1.8 25.6zm-12.2 32.3s25.5 21.4 39.8 9.7c15.5-12.8 9.6-25.2 18.4-35.2 8.8-10.1 15.9-13.8 36 .4 20.1 14.3-6.7-13.4-6.7-13.4l-14.7-10.5s4.6 9.6-.8 9.2c-5.4-.4-18-12.2-32.2-2.5-14.2 9.6-13.8 24.3-23.5 34.4-4.2 4.5-16.3 7.9-16.3 7.9zm124.3 65.6c9.7-68.4-48.5-114.5-82.5-138.4-34-23.9-64.4-43.4-81.4-45.8 12.5-.3 21.5 3.5 21.5 1.4l-18.7-17.7s6.6 2.8 8.6 2.5c2.1-.4 3.1-13.9 3.1-13.9s13.9 28.8 24 28.8c4.9 0 1-16.7 9.4-22.2 8.3-5.5 11.1-3.5 15.6-2.4-4.8 2.1-10.7 4.8-11.8 11.4-1 6.6 4.5 23.6 7.3 26.7 2.8 3.1 61.3 36.8 74.8 45.1 13.5 8.3 23.2 23.6 25.3 22.6 2.1-1 7.3-34 7.3-34l4.8 78c.1-.1 27.5 43-7.2 57.9zm-131.3-28.8s-2.8 3.5-5.9 5.2c-3.1 1.7-22.2 7.3-23.9 25.4-1.7 18 5.2 32.3 11.1 39.2 0-6.8.8-11.2 3.2-16.3 3-6.5 14.5-11.8 18-21.5s-3.4-11.3-2.8-15.3c1.4-8.3 14.6-7.3 14.6-7.3l-14.3-9.4zm94.6 50.3s-50.2-17.7-68.2 14 9.3 59.7 30.8 63.8c-7.3-8.3-16.5-16.3-12.8-29.1 5.9-20.5 17.3-6.6 24.3-20.5 5.9-11.8-6.6-11.1-4.2-18 1-2.9 10-18 48.8 10.4l-18.7-20.5zm160 31.9s55.1-30.9 72.8 5.9c17.7 36.8-39.1 70.1-67.2 47.5 31.5 10.8 34-8 33.3-11.4-.7-3.5-4.1-8.7-8.7-10.8-4.5-2.1-13.9-4.1-12.8-12.5 1.1-8.3 12.8-16.3 19.1-14.9 6.2 1.4 7-3 6.2-4.5-6.6-13.2-42.7.7-42.7.7zm-73 18.1s13.8 11.8 17.3 9.3c3.5-2.4 12.5-11.1 8.3-27.1-4.1-16-3.1-31.2-3.1-31.2s10.7 23.6 16 26.7c5.2 3.1 5.6 4.5 8.7 2.1 3.1-2.5 19.4-15.3 25.3-18.8 5.9-3.5 34.7-19.1 46.4-30.9 11.8-11.8 14.5-16.9 11.5-28.1-2.5-9-11.2-3.6-13.5-12.5-2.1-8 1.7-15.2 2.1-20.1.4-4.9-.3-15.2-8.6-22.2 15.2-2.4 38.8.3 47.4 14.6 9.6 15.8 5.2 35.7-19 62.4-8.4 9.3-30.3 20.3-43.3 34-26.3 27.8-59.6 36.6-79.3 67.7-15.9 24.7-16.1-25.9-16.1-25.9zm-6.6-149.2c2.1 15 5 21.5 7.3 21.8 2.4.4 11.7-14.8 22.5-25.3 10.1-9.7 27.8-12.3 62.7-35.1 14.9-9.7 41.9-24.3 69.6-53.4-7.6 13.5-20.1 36.5-34.3 44.7-19 11.1-69.6 43.3-89.4 65.2-19.7 21.9-35 49.6-33.3 84.3 1.5 30.5-10.4-59-10.4-59s3.2-58.2 5.3-43.2zm.3-2.5c-.7-39.2 35.2-96 41.9-106.9 10-16.3 59.2-69.7 97-54.1-33.6-21.2-76.6 10.8-99.8 31.9-17.1 15.6-30.1 46.5-35 44.4-4.9-2.1-2.8-8-2.8-8l-21.1 54.5c.1.1 20.5 77.4 19.8 38.2zm36.9-195c13.2-16.2 44.4-27.5 52.3-15.4-11.1-3.3-16.9 6.5-20.2 11.8-8.3 13.3-3.3 17.2-3.3 26.7 0 12-12.6 9-16.3 15.4-2.3 4.1-1.3 19.4 2.8 16.2 4.1-3.2 3.1 3.5 3.1 3.5l-11.2 11.4-8.4-.3s7.9-10.6 6.5-14.6c-1.5-4-11.9-5.5-13.6-5.6-1.7-.2-5.1-2.5-5.3-9.6"/>
	</symbol>

	<symbol id=":copa" viewBox="0 0 512 512">
		<path opacity=".5" d="M146.8 0l365.2 444.1-212.8 1.3"/><ellipse cx="404.4" cy="450.7" rx="107.6" ry="61.3"/><path opacity=".5" d="M415.3 0l-415.3 444.1 242 1.3"/><path d="M0 450.7c0 34 54.8 61.3 122.4 61.3 67.6 0 122.4-27.4 122.4-61.3s-54.8-61.3-122.4-61.3c-67.6.1-122.4 27.5-122.4 61.3z"/>
	</symbol>

	<symbol id=":crean" viewBox="0 0 512 512">
		<path d="M391.1 511h-.3c-7.7-.2-13.7-6.5-13.6-14.1 0-2 2.2-201.3-123.9-233.1-64.3-14.9-110.4-63.7-133.3-140.9-16.7-56.7-15.1-108.4-15-110.5.4-7.7 7-13.5 14.4-13.4 7.7.3 13.6 6.7 13.4 14.3-.1 1.9-5.3 193 127.1 223.5 147.6 37.3 145.2 251.5 145.1 260.6-.2 7.6-6.3 13.6-13.9 13.6zm-272.2 0c-7.6 0-13.8-6.1-13.9-13.8 0-9.2.5-226.2 148.6-260.4 126-29.1 123.7-221.8 123.6-223.7-.2-7.6 5.9-14 13.6-14.1h.3c7.5 0 13.7 6 14 13.6.2 9 2.6 217.2-145.1 251.3-126.4 29.1-127.1 231.2-127.1 233.2 0 7.6-6.1 13.9-13.9 13.9zm223.4-311.4h-176.2c-7.7 0-13.9-6.2-13.9-13.8 0-7.6 6.2-13.8 13.9-13.8h176.1c7.7 0 14 6.2 14 13.8.1 7.7-6.1 13.8-13.8 13.8zm28.3-58.8h-231c-7.7 0-13.9-6.2-13.9-13.8s6.2-13.8 13.9-13.8h231c7.7 0 14 6.2 14 13.8s-6.3 13.8-13.9 13.8zm-6.5 249.9h-223c-7.7 0-13.9-6.2-13.9-13.8 0-7.6 6.2-13.8 13.9-13.8h223c7.7 0 14 6.2 14 13.8 0 7.6-6.2 13.8-13.9 13.8zm16.6-308.7h-254.8c-7.7 0-13.9-6.2-13.9-13.8s6.2-13.8 13.9-13.8h254.8c7.7 0 14 6.2 14 13.8 0 7.6-6.2 13.8-13.9 13.8zm-3.6 370.6h-249c-7.7 0-13.9-6.2-13.9-13.8 0-7.7 6.2-13.8 13.9-13.8h249c7.7 0 14 6.2 14 13.8-.1 7.6-6.3 13.8-13.9 13.8zm-36-123.8h-169.3c-7.7 0-13.9-6.2-13.9-13.8s6.2-13.8 13.9-13.8h169.3c7.7 0 14 6.2 14 13.8s-6.2 13.8-13.9 13.8z"/>
	</symbol>

	<symbol id=":dodge" viewBox="0 0 512 512">
		<path d="M256 0c-141.4 0-256 114.6-256 256s114.6 256 256 256 256-114.6 256-256-114.6-256-256-256zm0 56.8c30.2 0 54.7 24.5 54.7 54.7 0 30.2-24.5 54.7-54.7 54.7-30.2 0-54.7-24.5-54.7-54.7 0-30.2 24.5-54.7 54.7-54.7zm-198.2 150.6c0-30.2 24.5-54.7 54.7-54.7 30.2 0 54.7 24.5 54.7 54.7 0 30.2-24.5 54.7-54.7 54.7s-54.7-24.5-54.7-54.7zm111.4 215.2c-30.2 0-54.7-24.4-54.7-54.6 0-30.2 24.5-54.7 54.7-54.7 30.2 0 54.7 24.5 54.7 54.7s-24.5 54.6-54.7 54.6zm86.8-134.6c-17.7 0-32-14.3-32-32s14.3-32 32-32 32 14.3 32 32-14.3 32-32 32zm86.8 135c-30.2 0-54.6-24.5-54.6-54.6 0-30.2 24.5-54.7 54.6-54.7 30.2 0 54.7 24.5 54.7 54.7 0 30.1-24.5 54.6-54.7 54.6zm56.8-160.7c-30.2 0-54.7-24.5-54.7-54.6 0-30.2 24.5-54.7 54.7-54.7 30.2 0 54.7 24.5 54.7 54.7-.1 30.2-24.6 54.6-54.7 54.6z"/>
	</symbol>

	<symbol id=":earth" viewBox="0 0 512 512">
		<path d="M437.02 74.981c48.351 48.4 74.98 112.6 74.98 181 0 68.38-26.629 132.667-74.98 181.019-48.353 48.351-112.64 74.98-181.02 74.98-68.38 0-132.667-26.629-181.02-74.98-48.351-48.352-74.98-112.639-74.98-181.019 0-68.38 26.627-132.668 74.98-181.02 48.353-48.352 112.64-74.981 181.02-74.981 68.4 0 132.7 26.629 181 74.981zm-22.628 339.412c31.529-31.53 52.493-70.804 61.136-113.531-6.737 9.918-13.181 13.597-17.172-8.603-4.11-36.195-37.354-13.074-58.258-25.93-22.002 14.829-71.453-28.831-63.049 20.4 12.967 22.2 70.004-29.725 41.6 17.271-18.137 32.808-66.321 105.466-60.053 143.129.791 54.872-56.067 11.442-75.657-6.76-13.178-36.46-4.491-100.187-38.949-118.043-37.401-1.624-69.502-5.023-83.997-46.835-8.723-29.914 9.282-74.447 41.339-81.322 46.925-29.483 63.7 34.527 107.7 35.717 13.664-14.297 50.908-18.843 53.996-34.875-28.875-5.095 36.634-24.279-2.764-35.191-21.735 2.556-35.739 22.537-24.184 39.479-42.119 9.821-43.468-60.952-83.955-38.629-1.029 35.295-66.111 11.443-22.518 4.3 14.978-6.544-24.43-25.508-3.14-22.062 10.458-.568 45.666-12.906 36.138-21.201 19.605-12.17 36.1 29.145 55.269-.941 13.854-23.133-5.81-27.404-23.175-15.678-9.79-10.962 17.285-34.638 41.166-44.869 7.959-3.41 15.561-5.268 21.373-4.742 12 14 34.3 16.3 35.439-1.671-29.791-14.267-62.638-21.804-96.646-21.804-48.811 0-95.235 15.512-133.654 44.2 10.325 4.7 16.186 10.6 6.2 18.148-7.728 23.027-39.085 53.938-66.612 49.562-14.293 24.648-23.706 51.803-27.73 80.3 23.056 7.6 28.372 22.7 23.418 27.775-11.748 10.244-18.968 24.765-22.688 40.7 7.5 46 29.086 88.2 62.635 121.8 42.308 42.3 98.559 65.6 158.392 65.6 59.832 0 116.084-23.3 158.392-65.607z"/>
	</symbol>

	<symbol id=":envelope" viewBox="0 0 512 512">
		<path d="M480 64h-448c-17.6 0-32 14.4-32 32v320c0 17.6 14.4 32 32 32h448c17.6 0 32-14.4 32-32v-320c0-17.6-14.4-32-32-32zm-32 64v23l-192 113.143-192-113.143v-23h384zm-384 256v-177.286l192 113.1 192-113.143v177.286h-384z"/>
	</symbol>

	<symbol id=":exclamation" viewBox="0 0 512 512">
		<path d="M214.229 412.168c-4.425 0-8.011 3.586-8.011 8.011v81.892c0 4.4 3.6 8 8 8.011h81.892c4.425 0 8.011-3.586 8.011-8.011v-81.886c0-4.425-3.586-8.011-8.011-8.011h-81.892v-.006zm21.254-33.801h39.382c4.425 0 8.36-3.568 8.782-7.974l24.321-251.281v-111.862c0-4.425-3.586-8.011-8.011-8.011h-89.909c-4.425 0-8.011 3.586-8.011 8.011v111.861l24.657 251.287c.429 4.4 4.4 8 8.8 7.969z"/>
	</symbol>

	<symbol id=":facebook" viewBox="0 0 512 512">
		<path d="M287.935 512h-95.935v-256h-64v-88.225l64-.029-.104-51.976c0-71.976 19.517-115.77 104.299-115.77h70.588v88.242h-44.115c-33.016 0-34.603 12.328-34.603 35.342l-.131 44.162h79.345l-9.352 88.225-69.927.029-.065 256z"/>
	</symbol>

	<symbol id=":food" viewBox="0 0 512 512">
		<path d="M112 0c-53.02 0-96 50.144-96 112 0 52.962 31.511 97.333 73.853 108.999l-15.894 259.062c-1.077 17.566 12.441 31.939 30.041 31.939h16c17.6 0 31.118-14.373 30.041-31.939l-15.894-259.062c42.342-11.666 73.853-56.037 73.853-108.999 0-61.856-42.98-112-96-112zm322.667 0l-26.667 160h-20l-13.333-160h-13.334l-13.333 160h-20l-26.667-160h-13.333v208c0 8.8 7.2 16 16 16h41.669l-15.71 256.061c-1.077 17.566 12.441 31.939 30.041 31.939h16c17.6 0 31.118-14.373 30.041-31.939l-15.71-256.061h41.669c8.837 0 16-7.164 16-16v-208h-13.333z"/>
	</symbol>

	<symbol id=":google-plus" viewBox="0 0 512 512">
		<path d="M279.533 32h-133.97c-60.06 0-116.585 45.503-116.585 98.211 0 53.863 40.941 97.333 102.044 97.333 4.2 0 8.378-.085 12.421-.376-3.965 7.593-6.801 16.144-6.801 25.021 0 14.969 8.1 27.105 18.234 37.012-7.693 0-15.121.224-23.226.224-74.391-.001-131.65 47.379-131.65 96.51 0 48.389 62.771 78.657 137.167 78.657 84.812 0 131.653-48.122 131.653-96.514 0-38.8-11.448-62.036-46.843-87.067-12.108-8.572-35.265-29.418-35.265-41.672 0-14.36 4.098-21.434 25.714-38.323 22.156-17.312 37.836-41.651 37.836-69.958 0-33.703-15.01-66.549-43.186-77.386h42.477l29.98-21.672zm-46.793 327.729c1.063 4.5 1.6 9.1 1.6 13.814 0 39.1-25.196 69.655-97.487 69.655-51.421 0-88.558-32.552-88.558-71.65 0-38.321 46.063-70.222 97.482-69.666 12 .127 23.184 2.1 33.335 5.3 27.913 19.413 47.938 30.381 53.586 52.502zm-82.331-145.841c-34.519-1.032-67.318-38.613-73.276-83.93-5.958-45.333 17.185-80.021 51.694-78.995 34.505 1 67.319 37.407 73.279 82.729 6 45.33-17.195 81.229-51.697 80.196zm265.591-85.888v-96h-32v96h-96v32h96v96h32v-96h96v-32z"/>
	</symbol>

	<symbol id=":graduation" viewBox="0 0 512 512">
		<path d="M96 293.666v74.334c0 32 71.6 80 160 80 88.4 0 160-48 160-80v-74.334l-160 80-160-80zm160-229.666l-256 128 256 128 207.714-103.857-15.714 135.857h32v-144l32-16-256-128zm16 135.2c-12.813 0-23.2-10.387-23.2-23.2 0-12.813 10.387-23.2 23.2-23.2s23.2 10.4 23.2 23.2c0 12.813-10.386 23.2-23.2 23.2z"/>
	</symbol>

	<symbol id=":hand" viewBox="0 0 512 512">
		<path d="M470.667 201.334c-12.445-12.445-32.811-12.445-45.255-.001l-13.917 13.917c-22.002 22.002-59.495 55.178-59.495 8.75v-160c0-17.6-14.4-32-32-32s-32 14.4-32 32v160c0 8.837-7.164 16-16 16s-16-7.163-16-16v-192c0-17.6-14.4-32-32-32s-32 14.4-32 32v192c0 8.837-7.164 16-16 16s-16-7.163-16-16v-160c0-17.6-14.4-32-32-32s-32 14.4-32 32v160c0 8.837-7.164 16-16 16s-16-7.163-16-16v-96c0-17.6-14.4-32-32-32s-32 14.4-32 32v160c0 64 32 224 192 224s188.627-175.373 269.255-256l9.412-9.412c12.445-12.444 12.445-32.81 0-45.254z"/>
	</symbol>

	<symbol id=":home" viewBox="0 0 512 512">
		<path d="M512 295.222l-256-198.713-256 198.714v-81.019l256-198.713 256 198.714zm-64-7.222v192h-128v-128h-128v128h-128v-192l192-144z"/>
	</symbol>

	<symbol id=":instagram" viewBox="0 0 512 512">
		<path d="M362.439 182.857h149.561v228.405c0 55.637-45.336 100.738-101.263 100.738h-309.473c-55.925 0-101.263-45.102-101.263-100.737v-228.406h148.892c-15.24 21.301-24.233 47.331-24.233 75.469 0 71.977 58.654 130.326 131.008 130.326 72.353 0 131.007-58.349 131.007-130.326-.002-28.138-8.996-54.168-24.236-75.469zm149.561-82.12v66.161h-163c-23.762-24.003-56.795-38.9-93.333-38.9-36.541 0-69.572 14.895-93.333 38.9h-162.334v-66.161c0-33.954 16.904-63.961 42.779-82.211v108.476h20.762v-119.748c4.71-1.884 9.593-3.42 14.621-4.587v124.336h20.763v-126.945c.78-.018 1.555-.058 2.339-.058h11.99v127.001h20.762v-127.001h276.721c55.927 0 101.263 45.101 101.263 100.737zm-46.284-42.457c0-8.924-7.273-16.158-16.243-16.158h-54.742c-8.973 0-16.243 7.234-16.243 16.158v55.655c0 9 7.3 16.158 16.243 16.158h54.741c8.971 0 16.243-7.234 16.243-16.158l.001-55.655zm-310.979 200.046c0-30.059 13.364-57.052 34.469-75.469 7.403-6.458 15.756-11.854 24.828-15.959 12.703-5.748 26.792-8.977 41.632-8.977 14.842 0 28.928 3.2 41.631 9 9.1 4.1 17.426 9.5 24.829 15.959 21.105 18.417 34.468 45.411 34.468 75.469 0 55.363-45.275 100.404-100.928 100.404-55.652.001-100.929-45.041-100.929-100.404zm26.668 0c0 40.984 33.398 74.205 74.595 74.205s74.594-33.222 74.594-74.205c0-40.985-33.395-74.206-74.594-74.206-41.198 0-74.595 33.222-74.595 74.206z"/>
	</symbol>

	<symbol id=":law" viewBox="0 0 512 512">
		<path d="M273.2 61.6l-12.2 323.5h6.4s1.3 3.1-1.3 9.3l6.4 6.2c5.1 6.2 5.1 9.3 9 15.5 4 6.2 4 6.2 9 9.3 5.2 3.1 6.4-1.5 10.3 6.2 3.8 7.7 6.4 9.3 3.8 15.5-2.6 6.2-2.6 4.7-2.6 4.7h-92.5s-4.5-4.7-4.5-7.8c0-3.1 4.5-14.7 7.7-16.3 3.2-1.5 10.9-3.9 13.5-7 2.6-3.1 14.1-20.9 18.6-22.5 4.5-1.5-1.3-9.3 0-13.2h7.1l-15.3-325h36.6v1.6zm0 33.1h-36l-147.7 20.1v5.7h331.3v-5.2l-147.6-20.6z"/><ellipse cx="85.3" cy="118.2" rx="8.6" ry="10.4"/><path d="M79 132.9l-42.4 170.7h45.5v-169.9h7.2v169.9h44.3l-41.8-169.9h3.2l51.4 169.1h22.5c-13.5 79.1-89.2 75.3-89.2 75.3-67.5-2.3-79.7-74.5-79.7-74.5h23.1l52.6-169.9c.1 0 3.3-.8 3.3-.8z"/><ellipse cx="428.4" cy="119.5" rx="8.6" ry="10.4"/><path d="M422.1 134.3l-42.4 170.7h45.5v-170h7.1v170h44.3l-41.7-170h3.2l51.3 169.2h22.6c-13.5 79.1-89.3 75.2-89.3 75.2-67.4-2.3-79.6-74.5-79.6-74.5h23.1l52.7-169.9 3.2-.7z"/>
	</symbol>

	<symbol id=":library" viewBox="0 0 512 512">
		<path d="M256 0l-256 160h512l-256-160zm144 192l16 32v192h64v-192l16-32h-96zm-128 0l16 32v192h64v-192l16-32h-96zm-128 0l16 32v192h64v-192l16-32h-96zm-128 0l16 32v192h64v-192l16-32h-96zm0 256l-16 64h512l-16-64h-480zm272-352c0 17.673-14.327 32-32 32-17.673 0-32-14.327-32-32s14.327-32 32-32c17.673 0 32 14.3 32 32z"/>
	</symbol>

	<symbol id=":map" viewBox="0 0 512 512">
		<path d="M256 0c-88.366 0-160 71.634-160 160 0 160 160 352 160 352s160-192 160-352c0-88.366-71.635-160-160-160zm0 256c-53.02 0-96-42.98-96-96s42.98-96 96-96 96 43 96 96-42.98 96-96 96z"/>
	</symbol>

	<symbol id=":menu" viewBox="0 0 512 512">
		<path d="M410.074 336h-308.148c-20.916 0-37.926 17.94-37.926 40s17.01 40 38 40h308.148c20.916 0 37.926-17.94 37.926-40s-17.01-40-37.926-40zm0-128h-308.148c-20.916 0-37.926 17.94-37.926 40s17.01 40 38 40h308.148c20.916 0 37.926-17.94 37.926-40s-17.01-40-37.926-40zm0-128h-308.148c-20.916 0-37.926 17.94-37.926 40s17.01 40 38 40h308.148c20.916 0 37.926-17.94 37.926-40s-17.01-40-37.926-40z"/>
	</symbol>

	<symbol id=":megaphone" viewBox="0 0 512 512">
		<path d="M64 192h-64v160h64v-32l64.009 18.289-.009.729v44.982c0 17.602 14.399 32 32 32h64c17.6 0 32-14.398 32-32v-9.143l160 45.715v-297.142l-352 100.57v-32zm96 155.43l63.928 18.265v18.305h-63.928v-36.57zm288-233.144v315.429l64 18.285v-352z"/>
	</symbol>

	<symbol id=":microphone" viewBox="0 0 512 512">
		<path d="M229.053 168.046l-229.053 279.954c0 32 32 64 64 64l279.954-229.054c-56.186-14.479-100.421-58.714-114.901-114.9zm62.429-128.498c-21.98 22.983-35.482 54.14-35.482 88.452 0 70.692 57.308 128 128 128 34.312 0 65.469-13.502 88.452-35.481-92.011-16.392-164.58-88.959-180.97-180.971zm124.518 24.452h32v32h-32zm-32-64c-23.014 0-44.606 6.078-63.268 16.71 8 92.704 81.854 166.564 174.558 174.558 10.632-18.661 16.71-40.254 16.71-63.268 0-70.692-57.307-128-128-128zm96 96h-32v32h32v32h-32v-32h-32v-32h-32v-32h-32v-32h32v32h32v-32h32v32h32v32z"/>
	</symbol>

	<symbol id=":money" viewBox="0 0 512 512">
		<path d="M348.865 252.71c-17.009-13.557-42.102-26.724-76.707-40.256-37.703-14.659-53.04-23.673-59.279-28.666-7.366-5.885-10.794-13.599-10.794-24.255 0-7.617 0-30.805 60.777-30.805 32.621 0 62.228 5.3 87.992 15.672 3.1 1.2 6.5 1.1 9.409-.497 2.901-1.546 4.986-4.297 5.676-7.521l11.615-54.322c1.229-5.736-2.199-11.447-7.845-13.059-21.27-6.077-48.767-9.763-81.867-10.986v-45.969c.258-3.104-.809-6.167-2.913-8.456-2.121-2.283-5.093-3.59-8.192-3.59h-38.219c-3.116 0-6.089 1.307-8.205 3.596-2.116 2.289-3.17 5.364-2.913 8.468l.318 48.479c-33.49 5.112-59.333 17.608-76.929 37.206-19.292 21.504-29.079 46.699-29.079 74.891 0 32.651 14.012 60.418 41.719 82.568 16.224 12.772 41.521 25.921 77.36 40.202 27.311 10.782 46.154 20.197 56.013 27.976 10.242 8.1 15.229 17.482 15.229 28.707 0 20.94-24.356 31.554-72.386 31.554-35.186 0-68.748-6.053-99.775-17.986-3.045-1.175-6.461-.959-9.331.611-2.871 1.564-4.914 4.303-5.586 7.497l-11.621 55.072c-1.253 6 2.5 11.807 8.4 13.173 33.059 7.6 68.418 11.843 105.277 12.55l.198 45.614c-.174 3.069.467 6.1 2.6 8.3 2.1 2.2 5 3.5 8.1 3.506h38.956c6.167 0 11.153-4.992 11.153-11.153 0-.857-.096-1.696-.282-2.499l.15-47.508c67.448-11.879 103.011-51.943 103.011-116.346.007-31.894-14.137-59.397-42.042-81.781z"/>
	</symbol>

	<symbol id=":monogram" viewBox="0 0 512 512">
		<path d="M419 300.3h-28.2v-88.3h28.2c1.7 6.2 3 12.5 4 18.9h89c-.6-6.4-1.4-12.7-2.5-18.9-5.5-31.9-16.9-61.7-33-88.4h-85.6v-17.2c3.7-1.1 7.5-2.2 9-2.5l8.1-1.6v-55.2l-4.4-3c-32.3-22.2-69.8-36.9-108.5-42.4l-11.5-1.7v88.9l8.1 1.6c3.7.7 7.3 1.6 10.8 2.6v30.5h-88.3v-30.5c3.5-1 7.1-1.8 10.8-2.6l8.1-1.6v-88.9l-11.5 1.7c-38.7 5.6-76.2 20.3-108.5 42.5l-4.4 3v55.2l8.1 1.6c1.5.3 5.3 1.4 9 2.5v17.2h-89c-16.1 26.7-27.5 56.5-33 88.4-2.5 14.2-3.8 29-3.8 44 0 15.1 1.3 29.8 3.8 44.2 5.5 32 17 61.7 33 88.4h89v86.5l5.1 2.9c38.6 22.2 82.7 34 127.5 33.9s88.8-11.7 127.4-33.9l5.1-2.9v-86.5h85.6c16.1-26.7 27.5-56.5 33-88.4 1.1-6.2 1.9-12.5 2.5-18.9h-89c-1 6.4-2.3 12.7-4 18.9m-125.3-219.7v-69c38.3 5.5 73.7 19.8 104.2 40.8v41.6c-3.1.6-11.8 3.3-17.1 4.8v201.5h-68.2v-214.9l-7.4-2c-3.8-1.1-7.6-2-11.5-2.8m8.8 131.4v88.3h-88.3v-88.3h88.3zm-88.3 176.7h88.3v29.2c-14.4 3.9-29.3 5.9-44.2 5.9-14.9 0-29.8-2-44.2-5.9.1 0 .1-29.2.1-29.2zm-95.4-294.7v-41.5c30.5-21 65.9-35.3 104.2-40.8v69c-3.9.8-7.7 1.7-11.5 2.7l-7.5 2v38.2h-68.1v-24.7c-5.3-1.6-14-4.3-17.1-4.9m7 147.7v58.6h-31.6c-3.8-14.1-5.9-28.9-5.9-44.2s2.1-30.1 5.9-44.2h31.6v29.8zm255 227.6c-36.1 20.7-77.9 32.5-122.4 32.5-44.6 0-86.4-11.8-122.4-32.5v-257.3h68.2v213.8l7.5 2c15.3 4.1 31 6.2 46.8 6.2 15.8 0 31.5-2.1 46.8-6.2l7.4-2v-37h68.2c-.1-.1-.1 80.5-.1 80.5z"/>
	</symbol>

	<symbol id=":music" viewBox="0 0 512 512">
		<path d="M438.009 3.348l-217.82 66.934c-26.389 7.562-47.779 35.21-47.779 61.716v230.774s-15.783-10.693-50.936-5.691c-51.622 7.365-93.48 47.163-93.48 88.911s41.858 67.328 93.48 59.963c51.661-7.326 89.52-45.903 89.52-87.67v-197.041l22.155-26.447 192.587-60.633s21.311-7.188 21.311 12.623v158.267s-19.625-11.343-54.779-7.05c-51.622 6.282-93.48 45.253-93.48 86.981 0 41.767 41.858 68.194 93.48 61.893 51.661-6.282 93.52-45.233 93.52-87.001v-322.225c0-26.506-21.409-41.866-47.779-34.304z"/>
	</symbol>

	<symbol id=":newspaper" viewBox="0 0 512 512">
		<path d="M448 128v-64h-448v352c0 17.673 14.327 32 32 32h432c26.511 0 48-21.489 48-48v-272h-64zm-32 288h-384v-320h384v320zm-352-256h320v32h-320zm192 64h128v32h-128zm0 64h128v32h-128zm0 64h96v32h-96zm-192-128h160v160h-160z"/>
	</symbol>

	<symbol id=":office" viewBox="0 0 512 512">
		<path d="M0 512h256v-512h-256v512zm160-448h64v64h-64v-64zm0 128h64v64h-64v-64zm0 128h64v64h-64v-64zm-128-256h64v64h-64v-64zm0 128h64v64h-64v-64zm0 128h64v64h-64v-64zm256-160h224v32h-224zm0 352h64v-128h96v128h64v-288h-224z"/>
	</symbol>

	<symbol id=":paw" viewBox="0 0 512 512">
		<path d="M267.169 275.999c-62.664 0-122.669 28.036-161.386 140.869s46.716 103.8 100.637 80.522c52.206-22.573 72.079-26.017 135 4 59.2 28.1 109.789-1.229 88.681-62.868-21.108-61.639-92.226-162.397-162.89-162.397zm-118.533-254.213c-35.721 8.537-54.605 57.079-42.18 108.4 12.425 51.3 51.455 86 87.2 77.503l.494-.121c35.721-8.537 54.605-57.079 42.18-108.42-5.349-22.1-15.626-41.116-28.448-54.927-16.965-18.275-38.383-27.438-58.728-22.576l-.494.121zm206.932-1.79c-35.95-7.521-73.771 28.318-84.474 80.048-6.152 29.733-2.007 58.2 9.5 78.5 8.5 15 21 25.5 36.3 28.741l.388.08c35.949 7.5 73.77-28.318 84.473-80.048 10.704-51.73-9.763-99.763-45.713-107.284l-.387-.08zm-345.273 266.865c19.751 45.7 61.375 71.6 92.969 58 18.079-7.81 28.957-26.896 31.254-50.356 1.718-17.539-1.36-37.521-9.81-57.063l-.034-.078c-19.751-45.678-61.375-71.645-92.969-57.997-31.594 13.648-41.195 61.741-21.444 107.42l.034.078zm398.479 49.926c17.982 8 39.269 3 57.926-11.336 14.041-10.705 26.594-26.635 35.13-46.226 19.879-45.623 10.446-93.821-21.069-107.654l-.41-.177c-31.515-13.833-73.177 11.938-93.056 57.562-19.879 45.623-10.446 93.8 21.069 107.654l.41.177z"/>
	</symbol>

	<symbol id=":pencil" viewBox="0 0 512 512">
		<path d="M424 168l-216 216h-80v-80l216-216zm27-27l-80-80 28.029-28.029c9.334-9.334 24.607-9.334 34 0l46.059 46.059c9.334 9.3 9.3 24.6 0 33.941l-28.029 28.029zm-67 140.791v166.209h-320v-320h176l64-64h-256c-26.4 0-48 21.6-48 48v352c0 26.4 21.6 48 48 48h352c26.4 0 48-21.6 48-48v-239.681l-64 57.472z"/>
	</symbol>

	<symbol id=":pinterest" viewBox="0 0 512 512">
		<path d="M256 0c-141.385 0-256 114.615-256 256s114.613 256 256 256c141.385 0 256-114.615 256-256s-114.615-256-256-256zm24.822 342.059c-23.26-1.807-33.021-13.328-51.252-24.404-10.03 52.588-22.282 103.008-58.57 129.343-11.202-79.484 16.447-139.182 29.285-202.557-21.892-36.853 2.635-111.017 48.81-92.737 56.813 22.474-49.2 137.004 21.966 151.308 74.31 14.934 104.644-128.929 58.571-175.712-66.579-67.553-193.799-1.54-178.155 95.178 3.8 23.646 28.236 30.819 9.8 63.451-42.61-9.446-55.325-43.051-53.688-87.856 2.634-73.337 65.892-124.682 129.343-131.783 80.242-8.982 155.553 29.454 165.953 104.938 11.706 85.195-36.224 177.465-122.025 170.831z"/>
	</symbol>

	<symbol id=":profile" viewBox="0 0 512 512">
		<path d="M512 425c0 26-8 47-26 63-17 15-41 23-70 23h-317c-29 0-52-7-70-23-17-15-26-36-26-63 0-11.778.424-23 1-34s2-23 5-36c2-13 5-25 9-36 3-11 9-21 15-32s14-19 22-27c8-7 18-13 31-17 12-4 25-6 40-6 2 0 7 2 15 7s17 10 27 16c10 5 23 11 39 16s32 7 48 7 32-2 53-7 29-10 39-16c10-5 19-11 27-16s13-7 15-7c14 0 28 2 40 6 12 4 22 10 31 17 8 7 16 16 22 27s11 21 15 32c3 11 7 23 9 36 2 13 4 25 5 36s1 22 1 34zm-116-297c0 35-13 65-40 90-27 25-60 37-98 37s-71-12-98-37c-27-25-40-55-40-90s13-65 40-90 60-37 98-37 71 12 98 37c27 25 40 55 40 90z"/>
	</symbol>

	<symbol id=":question-mark" viewBox="0 0 512 512">
		<path d="M256 0c-141.385 0-256 114.615-256 256s114.613 256 256 256c141.385 0 256-114.615 256-256s-114.615-256-256-256zm32 416h-64v-64h64v64zm96-192c0 35.29-28.71 64-64 64h-31.942l-.058.058v31.942h-64v-32c0-35.29 28.71-64 64-64h31.942l.058-.057v-63.885l-.058-.058h-159.942v-64h160c35.29 0 64 28.71 64 64v64z"/>
	</symbol>

	<symbol id=":scst" viewBox="0 0 512 512">
		<path d="M416.1 103.4zm1 152.6c52.2-49.9 77.6-98.8 60.7-128-9.6-16.7-31.7-24.6-61.8-24.6v24c21.1 0 36.4 4.7 41 12.6 3.6 6.3 1.6 15.9-.7 22.8-4.5 13.3-14.2 29.3-28 46.2-8.4 10.2-18.1 20.6-29 30.8-14.9-12.9-31.5-25.6-49.4-38-1.8-21.8-4.5-42.5-8.2-61.8 28.1-8.3 53.6-12.7 74.4-12.7v-24c-22.6 0-49.7 4.5-79.5 13.2-17.2-70.1-46.8-116.5-80.6-116.5-33.7 0-63.4 46.4-80.6 116.5-29.8-8.7-56.9-13.2-79.5-13.2-30.1 0-52.2 7.9-61.8 24.6-16.9 29.2 8.5 78.1 60.7 128-52.2 49.9-77.6 98.8-60.7 128 9.6 16.7 31.7 24.6 61.8 24.6 22.6 0 49.7-4.5 79.5-13.2 17.2 70.3 47 116.7 80.6 116.7 33.8 0 63.4-46.4 80.6-116.5 29.8 8.7 57 13.2 79.5 13.2 30.1 0 52.1-8 61.8-24.6 16.8-29.3-8.6-78.2-60.8-128.1zm-35.8 0c-9.3 8-19.2 15.8-29.7 23.5.3-7.7.4-15.6.4-23.5s-.1-15.8-.4-23.5c10.5 7.7 20.4 15.6 29.7 23.5zm-62.6 108.4c-11.5-4.1-23.3-8.8-35.1-13.9 6.8-3.6 13.6-7.4 20.5-11.3 6.9-4 13.6-8 20.1-12.1-1.5 12.8-3.3 25.3-5.5 37.3zm-26.7-46c-11.9 6.9-23.9 13.3-36 19.3-12.1-6-24.1-12.4-36-19.3-12-6.9-23.6-14.1-34.8-21.5-.8-13.4-1.3-27-1.3-40.8 0-13.8.4-27.5 1.3-40.8 11.2-7.4 22.8-14.6 34.8-21.5 11.9-6.9 23.9-13.3 36-19.3 12.1 6 24.1 12.4 36 19.3 12 7 23.6 14.1 34.8 21.5.8 13.4 1.2 27 1.2 40.8 0 13.9-.4 27.5-1.2 40.8-11.2 7.3-22.8 14.5-34.8 21.5zm-104.2 8.6c6.6 4.1 13.3 8.2 20.1 12.1 6.8 4 13.7 7.7 20.5 11.3-11.9 5.2-23.6 9.9-35.1 13.9-2.2-11.9-4-24.4-5.5-37.3zm-27.4-47.5c-10.5-7.7-20.4-15.5-29.7-23.5 9.3-7.9 19.2-15.8 29.7-23.5-.3 7.7-.4 15.6-.4 23.5s.1 15.8.4 23.5zm32.9-131.9c11.5 4.1 23.3 8.7 35.2 13.9-6.8 3.6-13.7 7.4-20.5 11.4-6.9 4-13.6 8-20.2 12.1 1.5-12.9 3.3-25.4 5.5-37.4zm110.7 25.3c-6.8-4-13.7-7.7-20.5-11.4 11.9-5.2 23.6-9.9 35.1-13.9 2.2 12 4.1 24.5 5.5 37.4-6.5-4.1-13.2-8.2-20.1-12.1zm-93.4-89.5c7.7-20.4 16.7-36.8 26-47.4 4.9-5.5 12.2-12 19.4-12 7.2 0 14.6 6.5 19.4 12 9.4 10.5 18.4 27 26 47.4 4.7 12.4 8.7 26 12.2 40.5-18.6 6.5-37.9 14.4-57.7 23.8-19.7-9.4-39.1-17.3-57.7-23.8 3.6-14.5 7.7-28.1 12.4-40.5zm-126.8 125.6c-13.9-16.9-23.6-32.9-28-46.2-2.3-7-4.3-16.6-.7-22.8 4.6-7.9 19.9-12.6 41-12.6 20.8 0 46.3 4.4 74.4 12.7-3.7 19.3-6.5 40-8.2 61.8-18 12.4-34.5 25.2-49.4 38-11-10.3-20.7-20.6-29.1-30.9zm12.2 175.6c-21.1 0-36.4-4.7-41-12.6-3.6-6.2-1.6-15.9.7-22.8 4.5-13.3 14.2-29.3 28-46.2 8.4-10.3 18.1-20.6 29-30.8 15 13 31.5 25.6 49.4 38 1.8 21.8 4.6 42.5 8.2 61.8-28.1 8.3-53.5 12.6-74.3 12.6zm205.4 44c-7.7 20.5-16.7 36.8-26 47.4-4.9 5.5-12.2 12-19.4 12-7.2 0-14.6-6.6-19.4-12-9.3-10.5-18.3-26.9-26-47.4-4.7-12.4-8.7-26-12.2-40.5 18.6-6.4 37.9-14.4 57.7-23.8 19.7 9.4 39.1 17.3 57.7 23.8-3.6 14.5-7.7 28.1-12.4 40.5zm154.9-79.4c2.3 7 4.3 16.6.7 22.8-4.6 7.9-19.9 12.6-41 12.6-20.8 0-46.3-4.4-74.4-12.7 3.7-19.3 6.5-40 8.2-61.8 18-12.4 34.5-25.2 49.4-38 10.8 10.3 20.5 20.6 29 30.8 14 17 23.6 33 28.1 46.3z"/>
	</symbol>

	<symbol id=":share" viewBox="0 0 512 512">
		<path d="M128 320s29.412-96 192-96v96l192-128-192-128v96c-128 0-192 79.836-192 160zm224 64h-288v-192h62.938c5.047-5.959 10.456-11.667 16.244-17.09 21.982-20.595 48.281-36.326 78.057-46.91h-221.239v320h416v-134.312l-64 42.668v27.644z"/>
	</symbol>

	<symbol id=":shareability" viewBox="0 0 512 512">
		<path d="M481.28 30.72h-450.56c-16.963 0-30.72 13.757-30.72 30.72v389.12c0 16.957 13.757 30.72 30.72 30.72h450.56c16.968 0 30.72-13.763 30.72-30.72v-389.12c0-16.968-13.752-30.72-30.72-30.72zm-76.8 20.48c11.29 0 20.48 9.2 20.48 20.48s-9.19 20.48-20.48 20.48-20.48-9.185-20.48-20.48 9.19-20.48 20.48-20.48zm-56.32 0c11.29 0 20.48 9.2 20.48 20.48s-9.19 20.48-20.48 20.48-20.48-9.185-20.48-20.48 9.19-20.48 20.48-20.48zm133.12 399.36h-450.56v-337.92h450.56v337.92zm-20.48-358.4c-11.29 0-20.48-9.185-20.48-20.48s9.19-20.48 20.48-20.48 20.48 9.2 20.48 20.48-9.19 20.48-20.48 20.48zm-116.736 258.34c-8.402 0-15.816 3.369-21.78 8.325l-52.634-37.555c3.338-6.881 5.371-14.433 5.371-22.554 0-11.167-3.645-21.478-9.646-29.906l61.558-61.599c5.125 3 10.757 5.2 17.132 5.2 19.082 0 34.519-15.442 34.519-34.524s-15.437-34.524-34.519-34.524c-19.087 0-34.524 15.442-34.524 34.524 0 6.4 2.2 12.006 5.2 17.121l-61.568 61.599c-8.494-6.067-18.739-9.677-29.932-9.677-19.763 0-36.751 11.228-45.486 27.535l-41.564-13.885c-1.684-7.752-8.259-13.655-16.522-13.655-9.533.005-17.26 7.726-17.26 17.27s7.726 17.26 17.26 17.26c4.352 0 8.228-1.751 11.269-4.413l41.329 13.788c-.404 2.596-.814 5.197-.814 8 0 28.59 23.199 51.784 51.789 51.784 14.228 0 27.136-5.77 36.511-15.068l52.291 37.32c-1.485 3.84-2.493 7.926-2.493 12.273 0 19.041 15.442 34.519 34.524 34.519s34.519-15.478 34.519-34.519c-.003-19.054-15.44-34.526-34.522-34.526z"/>
	</symbol>

	<symbol id=":speech-bubbles" viewBox="0 0 512 512">
		<path d="M213.333 28.5c117.82 0 213.333 77.276 213.333 172.601s-95.513 172.601-213.333 172.601c-11.315 0-22.42-.72-33.26-2.093-45.825 45.631-98.743 53.813-151.629 55.015v-11.168c28.557-13.931 51.556-39.308 51.556-68.308 0-4.046-.316-8.019-.902-11.906-48.248-31.643-79.098-79.975-79.098-134.141 0-95.325 95.513-172.601 213.333-172.601zm229.334 386.877c0 24.857 16.14 46.61 40.889 58.551v9.572c-45.834-1.03-87.905-8.043-127.619-47.156-9.396 1.177-19.02 1.795-28.826 1.795-42.431 0-81.515-11.445-112.717-30.677 64.3-.225 125.004-20.819 171.037-58.062 23.204-18.774 41.508-40.802 54.406-65.472 13.674-26.156 20.607-54.023 20.607-82.827 0-4.642-.2-9.258-.559-13.849 32.254 26.631 52.115 62.928 52.115 102.942 0 46.428-26.737 87.855-68.551 114.978-.508 3.331-.782 6.737-.782 10.205z"/>
	</symbol>

	<symbol id=":text-bubble" viewBox="0 0 512 512">
		<path d="M96 128h320v32h-320zm0 64h256v32h-256zm0 64h128v32h-128zm368-224h-416c-26.4 0-48 21.6-48 48v256c0 26.4 21.6 48 48 48h80v128l153.6-128h182.4c26.4 0 48-21.6 48-48v-256c0-26.4-21.6-48-48-48zm-16 288h-189.571l-98.429 87.357v-87.357h-96v-224h384v224z"/>
	</symbol>

	<symbol id=":twitter" viewBox="0 0 512 512">
		<path d="M512 97.209c-18.838 8.354-39.082 14.001-60.33 16.54 21.686-13 38.343-33.585 46.186-58.115-20.298 12.039-42.778 20.78-66.705 25.49-19.16-20.415-46.461-33.17-76.673-33.17-58.011 0-105.044 47.029-105.044 105.039 0 8.233.929 16.25 2.7 23.939-87.3-4.382-164.701-46.2-216.509-109.753-9.042 15.514-14.223 33.558-14.223 52.809 0 36.444 18.544 68.596 46.73 87.433-17.219-.546-33.416-5.271-47.577-13.139-.01.438-.01.878-.01 1.3 0 50.894 36.209 93.348 84.261 103-8.813 2.4-18.094 3.686-27.674 3.686-6.769 0-13.349-.66-19.764-1.886 13.368 41.73 52.16 72.103 98.126 72.948-35.95 28.175-81.243 44.967-130.458 44.967-8.479 0-16.84-.497-25.058-1.47 46.486 29.805 101.701 47.197 161.021 47.197 193.211 0 298.868-160.062 298.868-298.872 0-4.554-.103-9.084-.305-13.59 20.528-14.81 38.336-33.31 52.418-54.374z"/>
	</symbol>

	<symbol id=":up-arrow-filled" viewBox="0 0 512 512">
		<path d="M512 256c0 141.385-114.615 256-256 256s-256-114.615-256-256 114.615-256 256-256 256 114.615 256 256zm-278.628-150.628l-128 128.001c-6.248 6.248-9.372 14.438-9.372 22.627s3.124 16.379 9.4 22.627c12.497 12.497 32.759 12.497 45.256 0l73.372-73.372v178.745c0 17.673 14.327 32 32 32 17.673 0 32-14.327 32-32v-178.745l73.373 73.373c12.497 12.497 32.758 12.497 45.255 0s12.497-32.758 0-45.254l-128-128.001c-12.497-12.497-32.759-12.497-45.256-.001z"/>
	</symbol>

	<symbol id=":up-arrow-outline" viewBox="0 0 512 512">
		<path d="M512 256c0 141.385-114.615 256-256 256s-256-114.615-256-256 114.615-256 256-256 256 114.615 256 256zm-464 0c0 114.875 93.125 208 208 208s208-93.125 208-208-93.125-208-208-208-208 93.125-208 208zm230.627-150.628l128 128.001c12.497 12.496 12.497 32.757 0 45.254s-32.758 12.497-45.255 0l-73.372-73.372v178.745c0 17.673-14.327 32-32 32-17.673 0-32-14.327-32-32v-178.745l-73.372 73.373c-12.497 12.497-32.759 12.497-45.256 0-6.248-6.249-9.372-14.439-9.372-22.628s3.124-16.379 9.372-22.627l128-128.001c12.497-12.496 32.759-12.496 45.255 0z"/>
	</symbol>

	<symbol id=":visibility" viewBox="0 0 512 512">
		<path d="M481.28 29.44h-450.56c-16.963 0-30.72 13.757-30.72 30.72v389.12c0 16.957 13.757 30.72 30.72 30.72h450.56c16.968 0 30.72-13.763 30.72-30.72v-389.12c0-16.968-13.752-30.72-30.72-30.72zm-76.8 20.48c11.29 0 20.48 9.2 20.48 20.48s-9.19 20.48-20.48 20.48-20.48-9.185-20.48-20.48 9.19-20.48 20.48-20.48zm-56.32 0c11.29 0 20.48 9.2 20.48 20.48s-9.19 20.48-20.48 20.48-20.48-9.185-20.48-20.48 9.19-20.48 20.48-20.48zm133.12 399.36h-450.56v-337.92h450.56v337.92zm-20.48-358.4c-11.29 0-20.48-9.185-20.48-20.48s9.19-20.48 20.48-20.48 20.48 9.2 20.48 20.48-9.19 20.48-20.48 20.48zm-205.824 74.092c-79.498 0-148.408 46.295-182.272 113.92 33.864 67.625 102.769 113.92 182.272 113.92s148.413-46.295 182.277-113.92c-33.864-67.625-102.774-113.92-182.277-113.92zm89.876 60.416c21.422 13.655 39.567 31.959 53.202 53.504-13.635 21.545-31.78 39.844-53.207 53.504-26.906 17.167-57.984 26.235-89.871 26.235-31.882 0-62.956-9.068-89.871-26.235-21.417-13.66-39.567-31.959-53.202-53.504 13.635-21.545 31.785-39.844 53.202-53.504 1.393-.891 2.801-1.751 4.224-2.601-3.548 9.728-5.489 20.224-5.489 31.186 0 50.335 40.806 91.141 91.136 91.141 50.335 0 91.141-40.806 91.141-91.141 0-10.957-1.946-21.458-5.483-31.181 1.413.844 2.8 1.7 4.2 2.596zm-89.876 17.192c0 18.877-15.299 34.171-34.176 34.171s-34.176-15.293-34.176-34.171 15.299-34.181 34.176-34.181 34.176 15.304 34.176 34.181z"/>
	</symbol>

	<symbol id=":wilkinson" viewBox="0 0 512 512">
		<path d="M384 64c-49.2 0-94 18.5-128 48.9-34-30.4-78.8-48.9-128-48.9s-94 18.5-128 48.9v286.2l1 .9c8.2 7.3 17 13.8 26.4 19.6 9.4-7.6 19.7-14.2 30.8-19.6 21.1-10.2 44.8-16 69.8-16s48.7 5.7 69.8 16c11 5.4 21.3 12 30.8 19.6 1.8 1.5 3.6 3 5.4 4.6 8.1 7.2 15.5 15.2 22 23.8 6.5-8.7 13.9-16.7 22-23.8 1.8-1.6 3.6-3.1 5.4-4.6 9.4-7.6 19.8-14.2 30.8-19.6 21.1-10.2 44.8-16 69.8-16s48.7 5.7 69.8 16c11 5.4 21.3 12 30.8 19.6 9.4-5.8 18.2-12.3 26.4-19.6l1-.9v-286.2c-34-30.4-78.8-48.9-128-48.9zm-256 288c-35 0-67.8 9.3-96 25.7v-249.7c26.7-20.1 60-32 96-32s69.3 12 96 32v249.7c-28.2-16.4-61-25.7-96-25.7zm256 0c-35 0-67.8 9.3-96 25.7v-249.7c26.7-20.1 60-32 96-32s69.3 12 96 32v249.7c-28.2-16.4-61-25.7-96-25.7z"/>
	</symbol>

	<symbol id=":window" viewBox="0 0 192 192">
		<path d="M89 93h-89v-89l89 89zm0 6h-89v89l89-89zm14-6h89v-89l-89 89zm0 6h89v89l-89-89zm-10-10v-89h-89l89 89zm6 0v-89h89l-89 89zm-6 14v89h-89l89-89zm6 0v89h89l-89-89z"/>
	</symbol>

	<symbol id=":youtube" viewBox="0 0 512 512">
		<path d="M503.642 139.31c-6.272-25.915-28.549-45.029-55.352-47.869-63.478-6.755-127.739-10.977-191.718-10.941-63.974-.036-128.23 4.176-191.724 10.946-26.803 2.85-49.065 21.949-55.327 47.869-8.908 36.903-9.021 77.177-9.021 115.185 0 38.002 0 78.277 9 115.19 6.3 26 28.529 45.029 55.332 47.859 63.483 6.8 127.739 10.977 191.724 10.951 63.969.026 128.241-4.181 191.708-10.951 26.798-2.84 49.08-21.959 55.347-47.859 8.914-36.912 8.975-77.187 8.975-115.19s.051-78.282-8.858-115.19m-159.851 126.459l-120.689 62.372c-12.001 6.208-21.821.609-21.821-12.425v-122.447c0-13.039 9.815-18.648 21.821-12.43l120.689 62.372c12.017 6.2 12.017 16.361 0 22.558"/>
	</symbol>

	<script>
	(function (svg, element) {
		if (element) {
			while (element.firstChild) svg.appendChild(element.firstChild);
		}
	})(document.querySelector('svg'), document.getElementById(location.hash.slice(1)));
	</script>
</svg>
