<svg version="1.1" xmlns="http://www.w3.org/2000/svg" xmlns:xlink="http://www.w3.org/1999/xlink" x="0px" y="0px"
	 width="512" height="512" viewBox="0 0 512 512">

	<g id="location">
		<path d="M256,0C167.634,0,96,71.634,96,160c0,160,160,352,160,352s160-192,160-352C416,71.634,344.365,0,256,0z M256,256
		c-53.021,0-96-42.98-96-96s42.979-96,96-96c53.02,0,96,42.98,96,96S309.02,256,256,256z"/>
	</g>

	<g id="time">
		<path d="M384,224v64H224V96h64v128H384z M256,0C114.615,0,0,114.615,0,256s114.614,256,256,256c141.385,0,256-114.615,256-256
			S397.385,0,256,0z M256,448c-106.039,0-192-85.961-192-192S149.961,64,256,64s192,85.961,192,192S362.039,448,256,448z"/>
	</g>

	<g id="user">
		<path d="M311.413,351.368c-11.056-1.759-11.308-32.157-11.308-32.157s32.484-32.158,39.564-75.401
			c19.045,0,30.809-45.973,11.761-62.148C352.226,164.635,375.911,48,256,48s-96.226,116.635-95.433,133.662
			c-19.047,16.175-7.284,62.148,11.762,62.148c7.079,43.243,39.563,75.401,39.563,75.401s-0.252,30.398-11.307,32.157
			C164.976,357.034,32,415.685,32,480h224h224C480,415.685,347.024,357.034,311.413,351.368z"/>
	</g>

	<g id="calendar">
		<path d="M416,96h-32v64h-96V96h-96v64H96V96H64c-17.601,0-32,14.4-32,32v352c0,17.6,14.399,32,32,32h352c17.6,0,32-14.4,32-32V128
			C448,110.4,433.6,96,416,96z M128,480H64.057c-0.02-0.017-0.041-0.038-0.057-0.058V416h64V480z M128,384H64v-64h64V384z M128,288H64
			v-64h64V288z M224,480h-64v-64h64V480z M224,384h-64v-64h64V384z M224,288h-64v-64h64V288z M320,480h-64v-64h64V480z M320,384h-64
			v-64h64V384z M320,288h-64v-64h64V288z M416,479.942c-0.018,0.02-0.038,0.041-0.059,0.058H352v-64h64V479.942z M416,384h-64v-64h64
			V384z M416,288h-64v-64h64V288z M160,64c0-8.836-7.164-16-16-16s-16,7.164-16,16v64h32V64z M352,64c0-8.836-7.164-16-16-16
			s-16,7.164-16,16v64h32V64z"/>
	</g>

	<g id="tag">
		<path d="M463.906,0h-144.28c-26.453,0-63.398,15.303-82.103,34.007L14.028,257.502c-18.703,18.704-18.703,49.312,0,68.016
			l172.455,172.453c18.704,18.705,49.312,18.705,68.016,0l223.494-223.494C496.697,255.772,512,218.826,512,192.375V48.094
			C512,21.642,490.357,0,463.906,0z M400,160c-26.511,0-48-21.49-48-48s21.489-48,48-48c26.51,0,48,21.49,48,48S426.51,160,400,160z"
			/>
	</g>

	<g id="building">
		<path d="M256,0L0,160h512L256,0z M400,192l16,32v192h64V224l16-32H400z M272,192l16,32v192h64V224l16-32H272z M144,192l16,32v192h64
			V224l16-32H144z M16,192l16,32v192h64V224l16-32H16z M16,448L0,512h512l-16-64H16z M288,96c0,17.673-14.327,32-32,32
			s-32-14.327-32-32s14.327-32,32-32S288,78.327,288,96z"/>
	</g>

	<g id="announce">
		<path d="M512,214.628c0-100.463-29.396-181.969-65.741-182.613c0.146-0.003,0.289-0.015,0.436-0.015h-41.471
			c0,0-97.399,73.168-237.615,101.877c-4.279,22.646-7.015,49.637-7.015,80.751c0,31.114,2.733,58.104,7.015,80.75
			c140.214,28.709,237.615,101.878,237.615,101.878h41.471c-0.146,0-0.289-0.012-0.436-0.016C482.607,396.596,512,315.091,512,214.628
			z M432.411,369.626c-4.69,0-9.766-4.871-12.373-7.774c-6.314-7.031-12.396-17.979-17.594-31.663
			c-11.628-30.616-18.032-71.655-18.032-115.562c0-43.905,6.404-84.945,18.032-115.561c5.197-13.684,11.281-24.633,17.594-31.664
			c2.607-2.906,7.683-7.776,12.373-7.776s9.769,4.872,12.372,7.776c6.317,7.032,12.398,17.979,17.595,31.664
			c11.629,30.615,18.033,71.656,18.033,115.561c0,43.901-6.404,84.944-18.033,115.562c-5.195,13.684-11.281,24.632-17.595,31.663
			C442.18,364.755,437.104,369.626,432.411,369.626z M125.906,214.628c0-25.975,1.905-51.215,5.526-74.547
			c-23.686,3.277-44.471,5.162-70.17,5.162c-33.529,0-33.529,0-33.529,0L0,192.586v44.085l27.729,47.343c0,0,0,0,33.53,0
			c25.699,0,46.484,1.887,70.17,5.162C127.812,265.844,125.906,240.603,125.906,214.628z M184.075,321.086l-63.999-12.255
			l40.921,160.771c2.117,8.317,10.372,12.52,18.343,9.327l59.278-23.726c7.972-3.188,11.164-11.982,7.098-19.542L184.075,321.086z
			 M432.411,274.365c-1.809,0-3.764-1.877-4.769-2.996c-2.436-2.71-4.778-6.93-6.781-12.204c-4.48-11.8-6.95-27.617-6.95-44.539
			s2.47-32.739,6.95-44.539c2.003-5.274,4.348-9.494,6.781-12.204c1.005-1.12,2.96-2.997,4.769-2.997s3.766,1.878,4.77,2.997
			c2.435,2.71,4.778,6.929,6.78,12.204c4.481,11.799,6.95,27.617,6.95,44.539c0,16.921-2.469,32.739-6.95,44.539
			c-2.002,5.274-4.349,9.494-6.78,12.204C436.177,272.488,434.221,274.365,432.411,274.365z"/>
	</g>

	<g id="gear">
		<path d="M330.14,150.974l-20.649,28.908l22.627,22.628l28.909-20.647c5.361,2.997,11.102,5.387,17.133,7.096L384,224h32l5.84-35.043
			c6.031-1.709,11.772-4.099,17.134-7.096l28.908,20.648l22.629-22.628l-20.649-28.908c2.997-5.359,5.387-11.103,7.096-17.133L512,128
			V96l-35.043-5.841c-1.709-6.03-4.099-11.772-7.096-17.133l20.649-28.908L467.883,21.49l-28.908,20.647
			c-5.361-2.997-11.103-5.387-17.134-7.096L416,0h-32l-5.84,35.043c-6.031,1.709-11.771,4.099-17.133,7.096l-28.909-20.647
			l-22.627,22.628l20.649,28.908c-2.997,5.359-5.388,11.103-7.097,17.133L288,96v32l35.043,5.841
			C324.752,139.871,327.143,145.613,330.14,150.974z M400,80c17.674,0,32,14.327,32,32s-14.326,32-32,32s-32-14.327-32-32
			S382.326,80,400,80z M0,320v32l33.691,6.125c0.621,4.023,1.416,7.988,2.362,11.895L7.275,388.57l12.246,29.563l33.472-7.233
			c2.107,3.455,4.363,6.81,6.746,10.064l-19.503,28.171l22.628,22.628l28.171-19.504c3.256,2.383,6.61,4.639,10.065,6.747
			l-7.234,33.472l29.564,12.248l18.55-28.779c3.905,0.945,7.872,1.74,11.895,2.361L160,512h32l6.126-33.691
			c4.023-0.621,7.988-1.416,11.896-2.361l18.549,28.779l29.563-12.246l-7.233-33.473c3.455-2.107,6.81-4.363,10.064-6.747
			l28.172,19.503l22.627-22.627l-19.504-28.171c2.384-3.255,4.64-6.61,6.747-10.065l33.473,7.234l12.246-29.564l-28.779-18.549
			c0.946-3.906,1.741-7.871,2.362-11.896L352,352v-32l-33.69-6.125c-0.621-4.023-1.416-7.988-2.362-11.895l28.779-18.551
			l-12.246-29.563l-33.473,7.233c-2.107-3.455-4.363-6.809-6.746-10.064l19.503-28.171l-22.627-22.628l-28.172,19.503
			c-3.255-2.384-6.609-4.638-10.064-6.746l7.233-33.472l-29.563-12.246l-18.551,28.778c-3.905-0.945-7.871-1.741-11.895-2.361L192,160
			h-32l-6.126,33.691c-4.021,0.621-7.987,1.416-11.895,2.361l-18.55-28.778L93.865,179.52l7.234,33.473
			c-3.455,2.107-6.811,4.363-10.065,6.746l-28.171-19.503l-22.628,22.628l19.503,28.171c-2.383,3.256-4.638,6.61-6.746,10.065
			l-33.472-7.234L7.275,283.43l28.779,18.551c-0.946,3.906-1.741,7.871-2.362,11.895L0,320z M176,266.4
			c38.439,0,69.601,31.16,69.601,69.6s-31.16,69.6-69.601,69.6c-38.439,0-69.6-31.16-69.6-69.6S137.561,266.4,176,266.4z"/>
	</g>

	<g id="chat">
		<path d="M213.333 28.5c117.82 0 213.333 77.276 213.333 172.601s-95.513 172.601-213.333 172.601c-11.315 0-22.42-.72-33.26-2.093-45.825 45.631-98.743 53.813-151.629 55.015v-11.168c28.557-13.931 51.556-39.308 51.556-68.308 0-4.046-.316-8.019-.902-11.906-48.248-31.643-79.098-79.975-79.098-134.141 0-95.325 95.513-172.601 213.333-172.601zm229.334 386.877c0 24.857 16.14 46.61 40.889 58.551v9.572c-45.834-1.03-87.905-8.043-127.619-47.156-9.396 1.177-19.02 1.795-28.826 1.795-42.431 0-81.515-11.445-112.717-30.677 64.3-.225 125.004-20.819 171.037-58.062 23.204-18.774 41.508-40.802 54.406-65.472 13.674-26.156 20.607-54.023 20.607-82.827 0-4.642-.2-9.258-.559-13.849 32.254 26.631 52.115 62.928 52.115 102.942 0 46.428-26.737 87.855-68.551 114.978-.508 3.331-.782 6.737-.782 10.205z"></path>
	</g>

	<g id="cu_window">
		<path d="M237.543,263.319L-0.266,501.073V263.319H237.543z M-0.266,248.073V10.26l237.81,237.813H-0.266z
			 M501.276-0.455L263.518,237.291V-0.455H501.276z M248.299,237.291L10.507-0.455h237.792V237.291z M274.291,248.073L512.032,10.26
			v237.813H274.291z M512.032,263.319v237.754L274.291,263.319H512.032z M248.299,274.025L10.507,511.831h237.792V274.025z
			 M263.518,274.025v237.806h237.725L263.518,274.025z"/>
	</g>

	<g id="newspaper">
		<path d="M448,128V64H0v352c0,17.673,14.327,32,32,32h432c26.511,0,48-21.489,48-48V128H448z M416,416H32V96h384V416z M64,160h320v32
			H64V160z M256,224h128v32H256V224z M256,288h128v32H256V288z M256,352h96v32h-96V352z M64,224h160v160H64V224z"/>
	</g>

	<g id="email">
		<path d="M480,64H32C14.4,64,0,78.4,0,96v320c0,17.6,14.399,32,32,32h448c17.6,0,32-14.4,32-32V96C512,78.4,497.6,64,480,64z
			 M448,128v23L256,264.143L64,151v-23H448z M64,384V206.714l192,113.144l192-113.144V384H64z"/>
	</g>

	<g id="cu_monogram">
		<path d="M422.99,230.016h89.006c-0.631-3.899-1.438-11.684-2.526-17.91c-5.526-31.859-16.908-60.061-33.024-87.351
			h-86.684v85.769h29.264c1.669,7.8,3,15.593,4,19.492H422.99z M304.016,210.523v-85.769H36.821
			c-16.109,27.29-27.498,55.937-33.025,87.796C1.302,226.901,0,241.373,0,256.437c0,15.072,1.3,30.261,3.8,44.615
			c5.5,31.863,16.92,61.517,33.021,88.806h87.903v-89.668H94.245c-3.816-15.594-5.893-29.535-5.893-44.837
			c0-15.298,2.077-29.235,5.893-44.83L304.016,210.523L304.016,210.523z M419.026,300.189H214.369v89.668h262.08
			c16.117-27.291,27.498-57.438,33.024-89.301c1.08-6.238,1.895-12.062,2.526-19.859h-89.006
			C422.016,288.495,420.694,292.393,419.026,300.189L419.026,300.189z M124.724,124.754h11.693V98.876
			c-3.898-1.563-15.591-4.226-19.488-4.842V52.455c31.181-21.002,66.26-35.302,105.236-40.81v68.989
			c-3.898,0.772-8.014,1.688-11.759,2.698l-7.729,2.023v39.399h11.693V93.086c3.898-0.951,7.413-1.809,11.1-2.554l8.388-1.63V0
			l-11.911,1.653C183.24,7.22,145.744,21.914,113.476,44.132l-4.342,3.014v55.161l7.351,1.6l8.2,2.479
			c-0.001,0-0.001,18.346-0.001,18.346L124.724,124.754z M214.369,388.708V210.523h-11.693v215.131l8.15,2.03
			c15.271,4.101,31.368,6.2,47.165,6.2c15.78,0,31.31-2.101,46.596-6.245l7.222-2.03v-35.797h-7.795v28.08
			c-15.591,3.906-29.93,5.902-44.818,5.902c-14.889,0-29.236-1.996-44.827-5.902v-29.229L214.369,388.708z M304.016,93.086v207.104
			h7.794V85.352l-7.725-2.019c-3.753-1.01-7.864-1.922-11.763-2.694V11.645c38.976,5.5,74.055,19.809,105.235,40.81v41.578
			c-3.897,0.616-11.692,3.279-15.591,4.842v201.314h7.795V106.408c3.898-1.08,8.676-2.175,10.196-2.479l9.292-1.622V47.145
			l-5.016-3.01C371.974,21.914,334.615,7.22,295.912,1.653L284.527,0v88.903l8.392,1.63C296.598,91.277,300.119,92.133,304.016,93.086
			L304.016,93.086z M136.417,300.331v-89.808h-11.693v264.678l5.62,2.916C168.954,500.285,213.29,512,258.066,512
			c44.76,0,88.429-11.719,127.043-33.883l4.653-2.916v-85.344h-7.795v79.495c-38.976,20.71-78.21,32.554-122.774,32.554
			c-44.565,0-87.697-11.84-122.775-32.554C136.417,469.353,136.417,300.331,136.417,300.331L136.417,300.331z"/>
	</g>

	<g id="cu_business">
		<path d="M447.028,193.064c0-106.174-86.078-192.25-192.249-192.25c-106.167,0-192.253,86.075-192.253,192.25
			c0,71.163,38.661,133.285,96.127,166.531v89.811l64.081,64.074h64.079l64.088-64.074v-89.804
			C408.391,326.35,447.028,264.228,447.028,193.064z M302.839,449.406h-96.122c-8.806,0-16.019-7.217-16.019-16.025
			c0-8.803,7.213-16.027,16.019-16.027h96.122c8.824,0,16.025,7.218,16.025,16.027C318.864,442.196,311.671,449.406,302.839,449.406z
			 M318.864,339.994v-146.93c17.709,0,32.037-14.329,32.037-32.042c0-17.711-14.328-32.045-32.037-32.045
			c-17.707,0-32.051,14.333-32.051,32.045v189.058c-10.409,2.125-21.148,3.199-32.034,3.199c-10.889,0-21.609-1.104-32.045-3.199
			V161.023c0-17.711-14.332-32.045-32.044-32.045c-17.708,0-32.045,14.333-32.045,32.045c0,17.712,14.336,32.042,32.045,32.042
			v146.924c-18.117-7.916-34.797-19.226-49.201-33.623c-30.261-30.287-46.926-70.51-46.926-113.301
			c0-42.784,16.665-83.011,46.926-113.287c30.275-30.26,70.495-46.925,113.282-46.925c42.804,0,83.003,16.665,113.298,46.925
			c30.265,30.276,46.907,70.496,46.907,113.287c0,42.791-16.643,83.014-46.907,113.286
			C353.666,320.754,336.979,332.088,318.864,339.994z"/>
	</g>

	<g id="cu_ces">
		<path d="M227.867,514.435c9.718-202.309,49.616-446.464-51.549-491.207c9.742-1.939,52.535,9.734,84.634,71.012
			C297.907,11.548,361.11-4.014,404.882,4.752C253.17,15.44,279.426,60.843,304.703,514.115L227.867,514.435z"/>
		<path d="M236.345,391.212c1.248-17.718-24.995-50.901-77.532-73.27c-52.512-22.39-96.663-48.21-91.605-77.319
			c4.702-26.991,25.46-40.354,25.46-40.354s-18.304,21.785-17.507,41.815c1.037,26.794,42.79,45.715,80.738,57.369
			c37.941,11.693,91.4,47.449,91.4,47.449S235.065,408.926,236.345,391.212z"/>
		<path d="M127.941,220.808c0,0-1.688-5.895-7.175-5.895c-5.47,0-12.221,9.694-19.833,7.571
			c-7.599-2.095-7.599-9.668-10.104-10.516c-2.54-0.848-9.709,1.671-9.709,1.671s6.353-16.522,24.468-22.338
			c13.069-4.224,21.316,0.553,24.037,3.773C136.387,203.091,127.941,220.808,127.941,220.808z"/>
		<path d="M115.72,253.266c0,0,25.712,21.542,40.054,9.721c15.564-12.825,9.695-25.308,18.567-35.436
			c8.859-10.12,16.021-13.92,36.258,0.424c20.241,14.344-6.737-13.497-6.737-13.497l-14.782-10.546c0,0,4.649,9.693-0.834,9.269
			c-5.457-0.397-18.128-12.221-32.472-2.499c-14.342,9.668-13.917,24.439-23.616,34.562
			C127.811,249.81,115.72,253.266,115.72,253.266z"/>
		<path d="M240.855,319.229c9.756-68.749-48.848-115.129-83.038-139.223c-34.187-24.07-64.867-43.616-81.972-46.036
			c12.559-0.347,21.622,3.478,21.622,1.384c0-2.104-18.836-17.803-18.836-17.803s6.64,2.821,8.708,2.468
			c2.098-0.374,3.134-13.972,3.134-13.972s13.958,28.954,24.075,28.954c4.903,0,1.052-16.758,9.436-22.339
			c8.38-5.555,11.169-3.48,15.686-2.415c-4.876,2.097-10.809,4.864-11.848,11.503c-1.039,6.641,4.542,23.722,7.332,26.854
			c2.772,3.134,61.736,37.002,75.348,45.348c13.611,8.392,23.365,23.747,25.458,22.682c2.095-1.037,7.319-34.187,7.319-34.187
			l4.876,78.487C248.162,260.941,275.734,304.216,240.855,319.229z"/>
		<path d="M108.63,290.267c0,0-2.789,3.474-5.923,5.21c-3.133,1.759-22.312,7.355-24.069,25.499
			c-1.755,18.118,5.231,32.438,11.169,39.385c0-6.871,0.81-11.233,3.175-16.357c3.04-6.527,14.608-11.87,18.089-21.644
			c3.49-9.779-3.455-11.316-2.789-15.358c1.406-8.364,14.663-7.332,14.663-7.332L108.63,290.267z"/>
		<path d="M203.868,340.847c0,0-50.594-17.804-68.701,13.968c-18.145,31.749,9.398,60.01,31.039,64.178
			c-7.332-8.368-16.639-16.363-12.924-29.293c5.954-20.617,17.448-6.644,24.442-20.617c5.918-11.837-6.64-11.13-4.186-18.111
			c1.019-2.943,10.104-18.137,49.183,10.474C261.792,390.032,203.868,340.847,203.868,340.847z"/>
		<path d="M365.035,372.958c0,0,55.476-31.085,73.277,5.89c17.786,37.003-39.417,70.472-67.686,47.814
			c31.761,10.812,34.203-8.02,33.489-11.5c-0.688-3.506-4.178-8.741-8.713-10.837c-4.534-2.065-13.95-4.171-12.912-12.567
			c1.058-8.364,12.912-16.39,19.204-14.98c6.27,1.383,7.049-2.972,6.27-4.538C401.324,358.985,365.035,372.958,365.035,372.958z"/>
		<path d="M291.462,391.101c0,0,13.941,11.84,17.423,9.399c3.481-2.443,12.56-11.157,8.363-27.229
			c-4.167-16.039-3.121-31.398-3.121-31.398s10.805,23.747,16.038,26.877c5.229,3.138,5.603,4.514,8.731,2.099
			c3.139-2.467,19.537-15.358,25.452-18.858c5.922-3.48,34.909-19.182,46.748-31.027c11.879-11.876,14.57-16.983,11.533-28.292
			c-2.473-9.055-11.265-3.582-13.631-12.561c-2.089-8.006,1.761-15.337,2.098-20.221c0.35-4.89-0.337-15.326-8.709-22.312
			c15.345-2.449,39.063,0.342,47.781,14.635c9.678,15.888,5.234,35.935-19.181,62.796c-8.474,9.318-30.518,20.399-43.628,34.184
			c-26.504,27.908-59.995,36.839-79.865,68.02C291.686,442.026,291.462,391.101,291.462,391.101z"/>
		<path d="M284.799,241.077c2.104,15.007,4.896,21.616,7.32,21.962c2.447,0.376,11.798-14.924,22.689-25.443
			c10.123-9.776,28.025-12.374,63.139-35.252c15.024-9.744,42.21-24.407,70.125-53.712c-7.682,13.597-20.201,36.656-34.54,44.998
			c-19.171,11.157-70.126,43.59-89.996,65.584c-19.886,21.995-35.231,49.885-33.483,84.789c1.504,30.651-10.48-59.347-10.48-59.347
			S282.708,226.069,284.799,241.077z"/>
		<path d="M285.15,238.628c-0.694-39.423,35.479-96.531,42.221-107.471c10.125-16.394,59.659-70.106,97.674-54.398
			c-33.824-21.29-77.094,10.809-100.466,32.085c-17.186,15.642-30.355,46.755-35.227,44.677c-4.91-2.1-2.814-8.048-2.814-8.048
			l-21.259,54.796C265.285,200.269,285.86,278.051,285.15,238.628z"/>
		<path d="M322.273,42.537c13.337-16.334,44.663-27.678,52.669-15.486c-11.154-3.359-17.019,6.509-20.343,11.824
			c-8.306,13.33-3.319,17.308-3.319,26.832c0,12.017-12.674,9.002-16.366,15.51c-2.3,4.106-1.325,19.505,2.863,16.339
			c4.156-3.181,3.156,3.506,3.156,3.506l-11.329,11.501l-8.498-0.344c0,0,7.988-10.681,6.502-14.663
			c-1.51-3.988-12.031-5.503-13.675-5.667c-1.682-0.168-5.188-2.504-5.341-9.68"/>
		<path d="M341.793,242.403c0,0,12.197-4.546,17.146-0.211c4.962,4.329,5.523,7.836,5.386,9.908
			c-0.243,3.328-9.525,8.478-7.667,16.128c1.074,4.38,5.572,4.755,9.91,5.763c4.34,1.007,6.412,4.145,5.378,9.118
			c-1.146,5.499-7.227,10.733-15.885,11.334c-8.696,0.611-17.57,1.624-24.177-11.795c1.023,8.479,8.045,19.82,25.178,20.457
			c33.041,1.243,45.662-28.291,45.243-37.159c-0.373-8.046-5.577-17.953-15.49-23.143c-9.857-5.125-25.405-2.065-27.674-3.105
			c-2.266-1.038-3.922-7.624,0-11.131c3.917-3.507-11.144,0.218-11.144,0.218L341.793,242.403z"/>
		<path d="M416.727,191.561c0,0,3.725-2.76,6.006-2.76c2.274,0,4.245,0.984,7.16-0.641
			c2.924-1.619,7.306-4.89,11.864-3.083c4.539,1.775,4.372,5.843,3.235,7.94c-1.146,2.125-2.588,6.35-0.319,8.447
			c2.284,2.126,10.088,0.823,12.668,5.557c2.596,4.699,6.025,16.73-6.329,28.449c24.87-6.691,35.585-46.17,17.232-58.199
			c-18.366-12.033-30.569,4.38-33.483,3.401c-2.938-0.953-2.596-6.318-2.596-6.318l-10.411,3.08L416.727,191.561z"/>
		<path d="M296.821,176.261c0,0-2.982,19.311-0.477,13.811c2.532-5.496,7.071-5.626,8.492-3.451
			c1.397,2.206,6.306,14.4,15.707,18.226c19.31,7.861,38.003-11.609,46.807-10.197c-8.964-9.91-2.181-17.085-10.218-23.403
			c-20.719-16.336-45.852,8.473-49.311,7.226c-3.463-1.275-1.271-11.313-1.271-11.313L296.821,176.261z"/>
		<path d="M326.812,120.667c0,0-15.231,32.51-2.525,15.25c12.751-17.292,31.75-26.883,35.828-26.727
			c4.092,0.158,8.185-1.722,9.116,1.567c0.933,3.29-5,6.267-4.891,12.887c0.161,8.629,7.039,9.483,10.539,11.313
			c3.915,2.043,8.479,8.628,8.479,17.422c0,8.18-0.93,13.978-11.927,17.743c34.227,1.755,46.486-45.526,27.636-62.5
			c-20.146-18.137-40.838,1.724-42.567-2.976c-1.726-4.729,4.543-9.107,4.543-9.107l-9.584,3.126L326.812,120.667z"/>
		<path d="M433.3,144.867c11.802-6.777,25.555-45.477,8.188-64.57c-19.022-20.892-51.852-11.301-56.721-8.473
			c22.3-4.409,40.271,4.94,40.271,4.94s-9.217,9.343-7.75,17.666c1.553,8.813,11.627,11.47,16.329,16.04
			C438.032,114.719,444.457,126.777,433.3,144.867z"/>
		<path d="M389.923,4.949c0,0,5.78,3.427,6.584,6.455c0.808,3.031,2.402,9.99,1.706,13.11
			c-0.681,3.133-3.08,11.463-0.498,17.267c3.639,8.167,20.872,8.075,29.678,7.663c8.905-0.423,22.496,2.324,28.145,14.826
			c0,0-0.605-36.421-23.421-50.032C409.307,0.608,389.923,4.949,389.923,4.949z"/>
		<path d="M223.302,46.891c0,0-8.472-28.226,16.869-42.607c17.849-10.117,39.287-1.992,47.6,5.967
			c10.94,10.439,2.386,31.649-5.649,37.773c1.959-5.648,1.135-14.147-2.062-16.563c-4.93-3.687-9.181-3.231-11.738-0.142
			c-2.568,3.04-4.824,10.104-11.249,10.758c-6.428,0.64-11.58-4.661-15.274-5.636c-3.688-0.954-13.672-3.373-12.221,15.766
			C230.87,69.37,223.302,46.891,223.302,46.891z"/>
		<path d="M214.371,46.931c0,0-17.368-12.248-12.695-6.364c4.634,5.881,1.194,10.771-0.269,11.268
			c-1.464,0.487-13.455,23.747-13.455,23.747s-18.618,5.189-18.618,20.082c0,9.431,4.66,10.974,9.811,13.949
			c2.927,1.699,6.111,8.077,6.111,13.709c0,12.75-6.508,18.169-12.989,18.357c-8.065,0.269-23.988-11-9.037-35.01
			c-9.071,4.649-15.444,31.584,1.938,38.672c17.372,7.114,35.965-2.018,46.031-14.663c20.812-26.214-12.482-54.119-12.482-54.119
			s0.477-23.016,6.842-22.761c6.376,0.242,8.579,3.917,10.294,6.378C217.579,62.618,214.371,46.931,214.371,46.931z"/>
		<path d="M132.371,100.56c-7.832-6.862-24.531-35.519,11.517-64.875c27.665-22.531,49.951-9.296,49.951-9.296
			s15.903,23.005,9.539,16.639c-6.375-6.364-15.368-8.178-20.08-7.598c-3.904,0.49-8.606,5.406-8.31,7.598
			c0.978,7.332,1.62,13.52-2.709,19.59c-6.589,9.296-14.663,5.856-23.986,6.111c-9.295,0.256-13.466,2.71-16.626,8.075
			C128.632,81.941,127.979,89.285,132.371,100.56z"/>
		<path d="M86.847,114.027c0,0-34.403-7.886-18.118-49.946c13.467-34.756,40.644-37.453,60.948-40.632
			c-9.778,4.647-17.85,12.236-22.02,19.088c-4.159,6.844-3.929,13.212-3.201,19.336c0.747,6.124-0.229,22.765-9.032,29.866
			c-8.821,7.084-10.788,11.02-10.545,13.972C85.141,108.628,86.847,114.027,86.847,114.027z"/>
		<path d="M69.232,132.62c0,0-7.357,4.412-2.952,11.027c4.407,6.61,11.752,3.667,12.482,14.444
			c0.734,10.758-4.172,12.722-7.088,16.87c-2.953,4.197-7.612,12.239-4.674,17.639c2.949,5.391,5.894,6.375,9.308,4.89
			c-0.255,4.915-40.631,7.357-41.865-26.428C33.242,137.293,69.232,132.62,69.232,132.62z"/>
	</g>

	<g id="cu_copa">
		<polyline opacity="0.5" enable-background="new    " points="148.513,4.268 508.945,441.23 298.872,442.51 	"/>
		<path d="M402.738,387.468c58.655,0,106.207,26.982,106.207,60.263c0,33.287-47.552,60.27-106.207,60.27
			c-58.656,0-106.207-26.982-106.207-60.27C296.531,414.45,344.082,387.468,402.738,387.468z"/>
		<polyline opacity="0.5" enable-background="new    " points="413.462,4.268 3.612,441.23 242.502,442.51 	"/>
		<path d="M3.612,447.73C3.612,481.018,57.71,508,124.38,508c66.707,0,120.79-26.982,120.79-60.27
			c0-33.28-54.083-60.263-120.79-60.263C57.71,387.468,3.612,414.463,3.612,447.73z"/>
	</g>

	<g id="cu_dodge">
		<path d="M256.542,1C116.092,1,2.242,114.847,2.242,255.295c0,140.46,113.856,254.306,254.301,254.306
			c140.455,0,254.301-113.84,254.301-254.306C510.844,114.834,396.997,1,256.542,1z M256.542,57.425
			c29.998,0,54.293,24.307,54.293,54.299c0,30.004-24.321,54.301-54.293,54.301c-29.979,0-54.299-24.296-54.299-54.301
			C202.243,81.732,226.564,57.425,256.542,57.425z M59.639,206.979c0-29.978,24.295-54.299,54.3-54.299
			c29.989,0,54.296,24.321,54.296,54.299c0,29.999-24.307,54.293-54.296,54.293C83.947,261.271,59.639,236.977,59.639,206.979z
			 M170.328,420.824c-29.992,0-54.3-24.277-54.3-54.279c0-30.018,24.321-54.295,54.3-54.295c29.982,0,54.29,24.328,54.29,54.295
			C224.618,396.516,200.31,420.824,170.328,420.824z M256.542,287.086c-17.579,0-31.793-14.209-31.793-31.791
			c0-17.577,14.214-31.791,31.793-31.791c17.568,0,31.79,14.214,31.79,31.791C288.332,272.877,274.11,287.086,256.542,287.086z
			 M342.761,421.156c-29.979,0-54.275-24.287-54.275-54.279s24.297-54.301,54.275-54.301c29.991,0,54.312,24.334,54.312,54.301
			C397.073,396.869,372.777,421.156,342.761,421.156z M399.158,261.592c-29.965,0-54.285-24.294-54.285-54.279
			c0-29.992,24.32-54.3,54.285-54.3c30.005,0,54.295,24.308,54.295,54.3C453.453,237.298,429.132,261.592,399.158,261.592z"/>
	</g>

	<g id="cu_law">
		<path d="M272.951,64.777l-12.116,321.679h6.374c0,0,1.296,3.064-1.271,9.252
			c-2.56,6.164,1.271,0,6.369,6.164c5.104,6.176,5.104,9.252,8.937,15.423c3.838,6.192,3.838,6.192,8.905,9.258
			c5.128,3.094,6.37-1.536,10.226,6.188c3.814,7.699,6.357,9.252,3.814,15.416c-2.561,6.146-2.561,4.635-2.561,4.635h-91.802
			c0,0-4.472-4.635-4.472-7.735c0-3.07,4.472-14.636,7.645-16.188c3.199-1.541,10.866-3.862,13.407-6.933
			c2.56-3.094,14.009-20.824,18.476-22.383c4.469-1.523-1.266-9.257,0-13.101h7L236.603,63.216h36.332v1.561H272.951z"/>
		<polygon points="272.951,97.669 237.256,97.669 90.626,117.68 90.626,123.392 
			419.577,123.392 419.577,118.254 	"/>
		<g>
			<path d="M86.475,110.724c4.732,0,8.569,4.641,8.569,10.365
				c0,5.719-3.837,10.36-8.569,10.36c-4.73,0-8.566-4.641-8.566-10.36C77.909,115.365,81.745,110.724,86.475,110.724z"/>
			<path d="M80.177,135.731L38.086,305.45h45.193V136.512h7.102V305.45h43.974
				L92.926,136.512h3.198l50.999,168.164h3.176h19.118c-13.375,78.693-88.598,74.849-88.598,74.849
				C13.869,377.203,1.754,305.45,1.754,305.45h4.448h18.504l52.267-168.938L80.177,135.731z"/>
		</g>
		<g>
			<path d="M427.101,112.043c4.735,0,8.572,4.635,8.572,10.359
				c0,5.719-3.837,10.36-8.572,10.36c-4.733,0-8.578-4.641-8.578-10.36C418.522,116.678,422.367,112.043,427.101,112.043z"/>
			<path d="M420.808,137.062l-42.093,169.7h45.187V137.834h7.085v168.94h43.991
				l-41.432-168.94h3.2l50.977,168.177h3.2h19.136c-13.377,78.663-88.623,74.802-88.623,74.802
				c-66.944-2.284-79.062-74.039-79.062-74.039h4.465h18.493l52.267-168.94L420.808,137.062z"/>
		</g>
	</g>

	<g id="cu_scst">
		<path d="M413.837,103.558L413.837,103.558L413.837,103.558z M414.873,254.978
			c51.784-49.51,76.925-98.002,60.19-126.988c-9.553-16.543-31.42-24.438-61.25-24.438v23.803c20.898,0,36.104,4.708,40.628,12.536
			c3.601,6.212,1.609,15.752-0.702,22.655c-4.413,13.246-14.046,29.085-27.796,45.831c-8.358,10.169-17.992,20.389-28.723,30.588
			c-14.773-12.752-31.192-25.436-49.004-37.726c-1.743-21.596-4.506-42.131-8.166-61.3c27.876-8.271,53.189-12.585,73.763-12.585
			l0.023-23.809h-0.023c-22.43,0-49.307,4.468-78.817,13.084C318.01,47.046,288.599,1,255.113,1c-33.46,0-62.89,46.04-79.882,115.624
			c-29.504-8.616-56.394-13.085-78.813-13.085c-29.827,0-51.719,7.884-61.27,24.438c-16.742,28.979,8.401,77.479,60.197,126.989
			c-51.796,49.523-76.934,98.027-60.197,127.006c9.556,16.525,31.43,24.434,61.27,24.434c22.419,0,49.304-4.47,78.813-13.098
			c16.992,69.62,46.422,115.667,79.882,115.667c33.473,0,62.891-46.047,79.883-115.625c29.511,8.618,56.396,13.085,78.817,13.085
			c29.836,0,51.709-7.901,61.263-24.438C491.805,353.007,466.657,304.512,414.873,254.978z M379.396,254.978
			c-9.244,7.89-19.08,15.674-29.447,23.304c0.271-7.655,0.412-15.433,0.412-23.304c0-7.857-0.141-15.648-0.399-23.291
			C360.34,239.305,370.177,247.107,379.396,254.978z M317.271,362.572c-11.438-4.056-23.1-8.691-34.859-13.831
			c6.767-3.599,13.534-7.359,20.327-11.256c6.805-3.944,13.473-7.939,19.975-12.019C321.289,338.251,319.483,350.639,317.271,362.572z
			 M290.824,316.846c-11.784,6.804-23.748,13.208-35.711,19.154c-11.965-5.923-23.919-12.351-35.709-19.154
			c-11.889-6.868-23.42-14.01-34.478-21.337c-0.819-13.251-1.241-26.768-1.241-40.525c0-13.737,0.422-27.254,1.241-40.504
			c11.058-7.347,22.589-14.484,34.478-21.344c11.791-6.804,23.744-13.195,35.709-19.155c11.963,5.935,23.927,12.351,35.711,19.155
			c11.908,6.873,23.421,13.998,34.489,21.344c0.82,13.25,1.228,26.773,1.228,40.504c0,13.758-0.407,27.28-1.228,40.525
			C314.245,302.836,302.732,309.992,290.824,316.846z M187.515,325.462c6.517,4.084,13.171,8.093,19.981,12.018
			c6.776,3.902,13.568,7.655,20.315,11.262c-11.763,5.107-23.397,9.775-34.851,13.822
			C190.753,350.639,188.941,338.251,187.515,325.462z M160.27,278.281c-10.364-7.63-20.209-15.414-29.442-23.304
			c9.233-7.87,19.079-15.672,29.442-23.291c-0.258,7.643-0.385,15.434-0.385,23.291C159.884,262.854,160.011,270.626,160.27,278.281z
			 M192.966,147.409c11.443,4.043,23.1,8.678,34.867,13.831c-6.768,3.593-13.538,7.347-20.317,11.267
			c-6.829,3.944-13.483,7.927-19.988,12.013C188.941,171.718,190.753,159.342,192.966,147.409z M302.744,172.494
			c-6.773-3.919-13.566-7.667-20.314-11.266c11.754-5.11,23.396-9.776,34.841-13.825c2.213,11.914,4.019,24.302,5.455,37.091
			C316.198,180.433,309.549,176.426,302.744,172.494z M210.069,83.761c7.605-20.284,16.53-36.549,25.796-47.026
			c4.814-5.443,12.099-11.926,19.248-11.926c7.162,0,14.436,6.482,19.242,11.926c9.275,10.453,18.213,26.693,25.818,47.026
			c4.616,12.296,8.647,25.769,12.118,40.153c-18.44,6.404-37.622,14.306-57.179,23.569c-19.559-9.282-38.764-17.165-57.18-23.58
			C201.407,109.53,205.438,96.075,210.069,83.761z M84.295,208.382c-13.754-16.745-23.383-32.603-27.803-45.836
			c-2.296-6.915-4.302-16.437-0.706-22.668c4.53-7.864,19.735-12.523,40.65-12.523l0,0c20.589,0,45.883,4.327,73.76,12.585
			c-3.661,19.168-6.407,39.704-8.154,61.3c-17.82,12.29-34.255,24.987-49.014,37.72C102.283,228.777,92.661,218.534,84.295,208.382z
			 M96.424,382.602c-20.928,0-36.108-4.66-40.65-12.523c-3.597-6.194-1.59-15.748,0.706-22.656
			c4.432-13.24,14.038-29.091,27.803-45.83c8.354-10.183,17.988-20.401,28.709-30.596c14.767,12.759,31.202,25.442,49.001,37.72
			c1.759,21.608,4.518,42.144,8.166,61.301C142.295,378.286,117.025,382.602,96.424,382.602z M300.174,426.219
			c-7.593,20.296-16.53,36.542-25.812,47.008c-4.813,5.436-12.081,11.944-19.241,11.944c-7.15,0-14.436-6.495-19.25-11.944
			c-9.272-10.441-18.197-26.688-25.796-47.008c-4.631-12.308-8.662-25.769-12.129-40.166c18.422-6.392,37.621-14.287,57.181-23.567
			c19.555,9.3,38.759,17.184,57.177,23.58C308.827,400.45,304.796,413.899,300.174,426.219z M453.751,347.422
			c2.307,6.902,4.303,16.449,0.696,22.645c-4.529,7.875-19.735,12.535-40.646,12.535c-20.586,0-45.881-4.352-73.758-12.585
			c3.655-19.157,6.43-39.705,8.154-61.301c17.83-12.277,34.255-24.961,49.011-37.726c10.719,10.188,20.357,20.406,28.708,30.594
			C439.699,318.322,449.326,334.182,453.751,347.422z"/>
	</g>

	<g id="cu_wilkinson">
		<path d="M383.796,64.571c-49.092,0-93.849,18.458-127.747,48.789c-33.898-30.33-78.648-48.789-127.729-48.789
			c-49.081,0-93.83,18.458-127.729,48.789v8.564v38.423v191.579v40.437v6.573c0.328,0.288,0.666,0.612,1.017,0.909
			c8.195,7.239,17.005,13.777,26.347,19.526c9.409-7.613,19.701-14.165,30.696-19.526c21.055-10.206,44.701-15.955,69.668-15.955
			c24.972,0,48.621,5.735,69.654,15.955c11.013,5.361,21.274,11.913,30.714,19.526c1.815,1.492,3.638,3.019,5.411,4.588
			c8.093,7.179,15.437,15.125,21.949,23.772c6.509-8.647,13.864-16.636,21.956-23.772c1.76-1.569,3.582-3.096,5.397-4.588
			c9.416-7.613,19.719-14.165,30.725-19.526c21.056-10.206,44.679-15.955,69.669-15.955c24.968,0,48.599,5.735,69.654,15.955
			c10.985,5.361,21.28,11.913,30.696,19.526c9.353-5.749,18.147-12.287,26.347-19.526c0.338-0.297,0.676-0.621,1.014-0.909v-6.573
			v-40.437V160.348v-38.41v-8.585C477.615,83.023,432.858,64.571,383.796,64.571z M128.32,351.956
			c-34.904,0-67.613,9.331-95.791,25.657V128.427c26.685-20.056,59.849-31.928,95.791-31.928c35.953,0,69.116,11.9,95.791,31.928
			v249.187C195.937,361.287,163.214,351.956,128.32,351.956z M383.796,351.956c-34.919,0-67.643,9.331-95.819,25.657V128.427
			c26.686-20.028,59.845-31.928,95.819-31.928c35.925,0,69.119,11.872,95.776,31.928v249.187
			C451.38,361.287,418.672,351.956,383.796,351.956z"/>
	</g>

	<g id="cu_crean">
		<path d="M391.41,509.479c-0.089,0-0.161,0-0.264,0c-7.593-0.154-13.637-6.432-13.513-14.032
			c0.052-2.002,2.141-200.338-122.996-232.004c-63.866-14.821-109.717-63.333-132.362-140.191
			c-16.623-56.397-14.945-107.832-14.857-110.002c0.27-7.593,6.818-13.377,14.251-13.243c7.601,0.268,13.527,6.651,13.26,14.248
			c-0.069,1.908-5.232,191.908,126.19,222.434c146.585,37.074,144.217,250.223,144.058,259.286
			C405.024,503.485,398.893,509.479,391.41,509.479z"/>
		<path d="M121.177,509.479c-7.575,0-13.729-6.117-13.773-13.703c-0.036-9.172,0.541-225.091,147.493-259.096
			C379.986,207.74,377.67,15.974,377.626,14.038c-0.146-7.597,5.891-13.893,13.507-14.039c0.094,0,0.181,0,0.262,0
			c7.498,0,13.622,5.985,13.784,13.499c0.159,8.809,2.551,216.086-144.058,250.018c-125.532,29.035-126.19,230.111-126.176,232.135
			c0.021,7.608-6.105,13.784-13.703,13.828C121.213,509.479,121.191,509.479,121.177,509.479z"/>
		<path d="M342.928,199.657H168.037c-7.611,0-13.769-6.154-13.769-13.769c0-7.615,6.158-13.769,13.769-13.769h174.891
			c7.615,0,13.769,6.154,13.769,13.769C356.696,193.503,350.543,199.657,342.928,199.657z"/>
		<path d="M371.005,141.148H141.614c-7.611,0-13.772-6.168-13.772-13.776c0-7.607,6.161-13.768,13.772-13.768h229.391
			c7.615,0,13.77,6.161,13.77,13.768C384.774,134.98,378.62,141.148,371.005,141.148z"/>
		<path d="M364.589,389.742H143.178c-7.611,0-13.772-6.154-13.772-13.77c0-7.614,6.161-13.768,13.772-13.768h221.411
			c7.622,0,13.768,6.153,13.768,13.768C378.356,383.588,372.204,389.742,364.589,389.742z"/>
		<path d="M381.075,82.618h-253c-7.611,0-13.772-6.161-13.772-13.776c0-7.608,6.161-13.768,13.772-13.768h253
			c7.616,0,13.77,6.16,13.77,13.768C394.845,76.457,388.691,82.618,381.075,82.618z"/>
		<path d="M377.465,451.334H130.29c-7.611,0-13.768-6.153-13.768-13.768c0-7.615,6.157-13.769,13.768-13.769h247.175
			c7.616,0,13.776,6.153,13.776,13.769C391.241,445.181,385.081,451.334,377.465,451.334z"/>
		<path d="M341.787,328.171H173.671c-7.611,0-13.768-6.161-13.768-13.769c0-7.608,6.157-13.769,13.768-13.769h168.116
			c7.615,0,13.769,6.16,13.769,13.769C355.556,322.01,349.388,328.171,341.787,328.171z"/>
	</g>

	<g id="blackboard">
		<path d="M50.397,174.237c-3.241-62.081-49.365-34.905-50.363-56.097c-0.499-8.228,4.488-6.731,7.729-6.981
			c1.745,0,4.986,1.247,26.179,0.25c39.143-2.244,76.542-5.735,113.939-7.729c110.949-5.984,114.439,60.834,114.937,70.558
			c1.496,29.42-13.463,54.601-45.376,66.319v1.745c56.097,9.973,73.798,33.658,76.042,74.298
			c3.242,60.336-35.403,99.978-108.704,103.966c-66.818,3.74-89.755,3.241-112.444,4.488c-11.469,0.498-22.688,2.992-32.412,3.491
			c-9.724,0.498-14.71,0.747-14.959-5.735c-0.748-14.709,38.895-5.485,36.65-49.365L50.397,174.237L50.397,174.237z M108.49,220.112
			c1.246,21.191,6.233,24.184,32.412,24.434l26.179-1.496c34.157-1.747,46.374-20.444,44.628-53.106
			c-2.493-42.384-36.65-68.313-77.29-66.07c-29.42,1.496-30.168,17.951-28.672,44.13L108.49,220.112L108.49,220.112z M115.471,350.507
			c2.244,42.384,14.46,54.851,58.341,52.357c44.13-2.493,65.322-32.91,62.829-77.04c-1.496-26.179-16.705-66.07-98.232-61.582
			c-26.179,1.495-27.176,12.965-25.93,35.651L115.471,350.507L115.471,350.507z"/>
		<path d="M321.908,138.085c-1.745-32.661-28.423-11.469-29.42-27.924c-0.499-11.469,20.943-5.983,61.832-34.406
			c3.241-1.745,4.736-3.491,7.978-3.74c4.986-0.249,3.74,9.724,3.99,12.965l9.723,177.766c16.954-17.203,35.902-32.909,58.591-34.156
			c52.108-2.742,74.298,41.637,75.794,72.802c3.739,68.563-33.41,106.46-88.759,109.452c-40.64,2.244-54.851-14.96-61.333-14.711
			c-8.228,0.499-11.968,18.7-21.94,19.198c-3.241,0.249-4.986-1.246-5.235-4.737c-0.25-3.241,2.493-13.214,1.246-36.151
			L321.908,138.085L321.908,138.085z M380.748,350.756c1.994,37.398,36.65,43.881,49.864,43.133
			c37.398-1.994,43.631-38.396,42.136-67.566c-1.745-34.156-19.946-65.82-62.331-63.577c-12.964,0.749-33.658,9.973-32.91,26.429
			L380.748,350.756L380.748,350.756z"/>
	</g>

	<g id="orgsync">
		<path d="M461.725,406.275c-48.311,67.366-117.021,100.38-204.516,100.38c-80.251,0-143.324-23.888-187.877-74.077
			C23.973,382.388,1.428,322.536,1.428,255.706c0-46.433,11.541-89.375,31.938-128.562c22.545-39.185,54.484-68.44,93.67-91.253
			C166.223,12.004,209.165,1,257.477,1h1.877c44.555,0,83.74,11.004,121.047,29.255c31.135,17.177,59.314,41.064,81.324,72.734
			c26.303-15.298,44.553-28.181,48.848-30.06c-4.295,11.004-4.295,217.936-4.295,217.936L320.281,185.387
			c0,0,20.934-11.541,46.43-26.302c-16.639-14.762-31.133-26.303-46.43-33.55c-18.252-7.247-38.65-11.004-61.195-11.004
			c-42.942,0-78.37,12.883-104.136,39.185c-26.303,27.645-39.186,61.194-39.186,104.138c0,41.064,12.883,74.614,39.186,100.38
			c23.887,26.303,57.437,39.185,98.5,39.185c50.188,0,91.253-18.251,119.435-55.827L461.725,406.275z"/>
	</g>

</svg>
