<?xml version="1.0" encoding="utf-8"?>
<!-- Generator: Adobe Illustrator 19.2.1, SVG Export Plug-In . SVG Version: 6.00 Build 0)  -->
<svg version="1.1" id="Layer_1" xmlns="http://www.w3.org/2000/svg" xmlns:xlink="http://www.w3.org/1999/xlink" x="0px" y="0px"
	 viewBox="0 0 512 512" style="enable-background:new 0 0 512 512;" xml:space="preserve">
<g id="location">
	<path d="M256,0C167.6,0,96,71.6,96,160c0,160,160,352,160,352s160-192,160-352C416,71.6,344.4,0,256,0z M256,256c-53,0-96-43-96-96
		s43-96,96-96c53,0,96,43,96,96S309,256,256,256z"/>
</g>
<g id="time">
	<path d="M384,224v64H224V96h64v128H384z M256,0C114.6,0,0,114.6,0,256s114.6,256,256,256c141.4,0,256-114.6,256-256S397.4,0,256,0z
		 M256,448c-106,0-192-86-192-192S150,64,256,64s192,86,192,192S362,448,256,448z"/>
</g>
<g id="user">
	<path d="M311.4,351.4c-11.1-1.8-11.3-32.2-11.3-32.2s32.5-32.2,39.6-75.4c19,0,30.8-46,11.8-62.1C352.2,164.6,375.9,48,256,48
		s-96.2,116.6-95.4,133.7c-19,16.2-7.3,62.1,11.8,62.1c7.1,43.2,39.6,75.4,39.6,75.4s-0.3,30.4-11.3,32.2C165,357,32,415.7,32,480
		h224h224C480,415.7,347,357,311.4,351.4z"/>
</g>
<g id="graduation">
	<path d="M278.1,349.9c-6,3-13.5,4.5-21,4.5c-7.5,0-15-1.5-21-4.5l-87-37.5l-31.5-13.5v60l0,0c0,1.5,0,1.5,0,3c0,42,63,78,141,78
		s141-34.5,141-78v-63l-31.5,13.5L278.1,349.9z M510.5,195.5C510.5,194,510.5,194,510.5,195.5c-1.5-3-1.5-4.5-3-6l0,0
		c-1.5-1.5-3-3-4.5-4.5c0,0,0,0-1.5-1.5c-1.5-1.5-3-1.5-4.5-3l0,0l0,0l0,0L264.6,80c-6-3-12-3-18,0L14.2,182c-7.5,3-13.5,12-13.5,21
		s6,16.5,13.5,21l102,43.5l69,30l63,27c3,1.5,6,1.5,9,1.5c3,0,6,0,9-1.5l63-27l69-30l70.5-30v166.5c0,12,10.5,22.5,22.5,22.5
		c12,0,22.5-10.5,22.5-22.5V203C512,198.5,512,197,510.5,195.5z"/>
</g>
<g id="calendar">
	<path d="M416,96h-32v64h-96V96h-96v64H96V96H64c-17.6,0-32,14.4-32,32v352c0,17.6,14.4,32,32,32h352c17.6,0,32-14.4,32-32V128
		C448,110.4,433.6,96,416,96z M128,480H64.1c0,0,0,0-0.1-0.1V416h64V480z M128,384H64v-64h64V384z M128,288H64v-64h64V288z M224,480
		h-64v-64h64V480z M224,384h-64v-64h64V384z M224,288h-64v-64h64V288z M320,480h-64v-64h64V480z M320,384h-64v-64h64V384z M320,288
		h-64v-64h64V288z M416,479.9C416,480,416,480,416,479.9l-64,0.1v-64h64V479.9z M416,384h-64v-64h64V384z M416,288h-64v-64h64V288z
		 M160,64c0-8.8-7.2-16-16-16s-16,7.2-16,16v64h32V64z M352,64c0-8.8-7.2-16-16-16s-16,7.2-16,16v64h32V64z"/>
</g>
<g id="tag">
	<path d="M463.9,0H319.6c-26.5,0-63.4,15.3-82.1,34L14,257.5c-18.7,18.7-18.7,49.3,0,68L186.5,498c18.7,18.7,49.3,18.7,68,0
		L478,274.5c18.7-18.7,34-55.7,34-82.1V48.1C512,21.6,490.4,0,463.9,0z M400,160c-26.5,0-48-21.5-48-48s21.5-48,48-48
		c26.5,0,48,21.5,48,48S426.5,160,400,160z"/>
</g>
<g id="building">
	<path d="M256,0L0,160h512L256,0z M400,192l16,32v192h64V224l16-32H400z M272,192l16,32v192h64V224l16-32H272z M144,192l16,32v192
		h64V224l16-32H144z M16,192l16,32v192h64V224l16-32H16z M16,448L0,512h512l-16-64H16z M288,96c0,17.7-14.3,32-32,32s-32-14.3-32-32
		s14.3-32,32-32S288,78.3,288,96z"/>
</g>
<g id="announce">
	<path d="M512,214.6c0-100.5-29.4-182-65.7-182.6c0.1,0,0.3,0,0.4,0h-41.5c0,0-97.4,73.2-237.6,101.9c-4.3,22.6-7,49.6-7,80.8
		s2.7,58.1,7,80.8c140.2,28.7,237.6,101.9,237.6,101.9h41.5c-0.1,0-0.3,0-0.4,0C482.6,396.6,512,315.1,512,214.6z M432.4,369.6
		c-4.7,0-9.8-4.9-12.4-7.8c-6.3-7-12.4-18-17.6-31.7c-11.6-30.6-18-71.7-18-115.6c0-43.9,6.4-84.9,18-115.6
		c5.2-13.7,11.3-24.6,17.6-31.7c2.6-2.9,7.7-7.8,12.4-7.8s9.8,4.9,12.4,7.8c6.3,7,12.4,18,17.6,31.7c11.6,30.6,18,71.7,18,115.6
		c0,43.9-6.4,84.9-18,115.6c-5.2,13.7-11.3,24.6-17.6,31.7C442.2,364.8,437.1,369.6,432.4,369.6z M125.9,214.6
		c0-26,1.9-51.2,5.5-74.5c-23.7,3.3-44.5,5.2-70.2,5.2c-33.5,0-33.5,0-33.5,0L0,192.6v44.1L27.7,284c0,0,0,0,33.5,0
		c25.7,0,46.5,1.9,70.2,5.2C127.8,265.8,125.9,240.6,125.9,214.6z M184.1,321.1l-64-12.3L161,469.6c2.1,8.3,10.4,12.5,18.3,9.3
		l59.3-23.7c8-3.2,11.2-12,7.1-19.5L184.1,321.1z M432.4,274.4c-1.8,0-3.8-1.9-4.8-3c-2.4-2.7-4.8-6.9-6.8-12.2
		c-4.5-11.8-7-27.6-7-44.5s2.5-32.7,7-44.5c2-5.3,4.3-9.5,6.8-12.2c1-1.1,3-3,4.8-3s3.8,1.9,4.8,3c2.4,2.7,4.8,6.9,6.8,12.2
		c4.5,11.8,7,27.6,7,44.5c0,16.9-2.5,32.7-7,44.5c-2,5.3-4.3,9.5-6.8,12.2C436.2,272.5,434.2,274.4,432.4,274.4z"/>
</g>
<g id="gear">
	<path d="M330.1,151l-20.6,28.9l22.6,22.6l28.9-20.6c5.4,3,11.1,5.4,17.1,7.1l5.8,35h32l5.8-35c6-1.7,11.8-4.1,17.1-7.1l28.9,20.6
		l22.6-22.6L469.9,151c3-5.4,5.4-11.1,7.1-17.1l35-5.8V96l-35-5.8c-1.7-6-4.1-11.8-7.1-17.1l20.6-28.9l-22.6-22.6L439,42.1
		c-5.4-3-11.1-5.4-17.1-7.1L416,0h-32l-5.8,35c-6,1.7-11.8,4.1-17.1,7.1l-28.9-20.6l-22.6,22.6L330.1,73c-3,5.4-5.4,11.1-7.1,17.1
		L288,96v32l35,5.8C324.8,139.9,327.1,145.6,330.1,151z M400,80c17.7,0,32,14.3,32,32s-14.3,32-32,32s-32-14.3-32-32
		S382.3,80,400,80z M0,320v32l33.7,6.1c0.6,4,1.4,8,2.4,11.9L7.3,388.6l12.2,29.6l33.5-7.2c2.1,3.5,4.4,6.8,6.7,10.1l-19.5,28.2
		l22.6,22.6L91,452.3c3.3,2.4,6.6,4.6,10.1,6.7l-7.2,33.5l29.6,12.2l18.6-28.8c3.9,0.9,7.9,1.7,11.9,2.4L160,512h32l6.1-33.7
		c4-0.6,8-1.4,11.9-2.4l18.5,28.8l29.6-12.2l-7.2-33.5c3.5-2.1,6.8-4.4,10.1-6.7l28.2,19.5l22.6-22.6L292.3,421
		c2.4-3.3,4.6-6.6,6.7-10.1l33.5,7.2l12.2-29.6L315.9,370c0.9-3.9,1.7-7.9,2.4-11.9L352,352v-32l-33.7-6.1c-0.6-4-1.4-8-2.4-11.9
		l28.8-18.6l-12.2-29.6l-33.5,7.2c-2.1-3.5-4.4-6.8-6.7-10.1l19.5-28.2l-22.6-22.6L261,219.7c-3.3-2.4-6.6-4.6-10.1-6.7l7.2-33.5
		l-29.6-12.2L210,196.1c-3.9-0.9-7.9-1.7-11.9-2.4L192,160h-32l-6.1,33.7c-4,0.6-8,1.4-11.9,2.4l-18.6-28.8l-29.6,12.2l7.2,33.5
		c-3.5,2.1-6.8,4.4-10.1,6.7l-28.2-19.5l-22.6,22.6L59.7,251c-2.4,3.3-4.6,6.6-6.7,10.1l-33.5-7.2L7.3,283.4L36.1,302
		c-0.9,3.9-1.7,7.9-2.4,11.9L0,320z M176,266.4c38.4,0,69.6,31.2,69.6,69.6s-31.2,69.6-69.6,69.6c-38.4,0-69.6-31.2-69.6-69.6
		S137.6,266.4,176,266.4z"/>
</g>
<g id="chat">
	<path d="M213.3,28.5c117.8,0,213.3,77.3,213.3,172.6s-95.5,172.6-213.3,172.6c-11.3,0-22.4-0.7-33.3-2.1
		c-45.8,45.6-98.7,53.8-151.6,55v-11.2C57,401.5,80,376.1,80,347.1c0-4-0.3-8-0.9-11.9C30.8,303.6,0,255.3,0,201.1
		C0,105.8,95.5,28.5,213.3,28.5z M442.7,415.4c0,24.9,16.1,46.6,40.9,58.6v9.6c-45.8-1-87.9-8-127.6-47.2c-9.4,1.2-19,1.8-28.8,1.8
		c-42.4,0-81.5-11.4-112.7-30.7c64.3-0.2,125-20.8,171-58.1c23.2-18.8,41.5-40.8,54.4-65.5c13.7-26.2,20.6-54,20.6-82.8
		c0-4.6-0.2-9.3-0.6-13.8c32.3,26.6,52.1,62.9,52.1,102.9c0,46.4-26.7,87.9-68.6,115C442.9,408.5,442.7,411.9,442.7,415.4
		L442.7,415.4z"/>
</g>
<g id="cu_window">
	<path d="M237.5,263.3L-0.3,501.1V263.3H237.5z M-0.3,248.1V10.3l237.8,237.8H-0.3z M501.3-0.5L263.5,237.3V-0.5H501.3z
		 M248.3,237.3L10.5-0.5h237.8L248.3,237.3L248.3,237.3z M274.3,248.1L512,10.3v237.8H274.3z M512,263.3v237.8L274.3,263.3H512z
		 M248.3,274L10.5,511.8h237.8L248.3,274L248.3,274z M263.5,274v237.8h237.7L263.5,274z"/>
</g>
<g id="newspaper">
	<path d="M448,128V64H0v352c0,17.7,14.3,32,32,32h432c26.5,0,48-21.5,48-48V128H448z M416,416H32V96h384V416z M64,160h320v32H64V160
		z M256,224h128v32H256V224z M256,288h128v32H256V288z M256,352h96v32h-96V352z M64,224h160v160H64V224z"/>
</g>
<g id="email">
	<path d="M480,64H32C14.4,64,0,78.4,0,96v320c0,17.6,14.4,32,32,32h448c17.6,0,32-14.4,32-32V96C512,78.4,497.6,64,480,64z M448,128
		v23L256,264.1L64,151v-23H448z M64,384V206.7l192,113.1l192-113.1V384H64z"/>
</g>
<g id="cu_monogram">
	<path d="M423,230h89c-0.6-3.9-1.4-11.7-2.5-17.9c-5.5-31.9-16.9-60.1-33-87.4h-86.7v85.8H419C420.7,218.3,422,226.1,423,230
		L423,230z M304,210.5v-85.8H36.8c-16.1,27.3-27.5,55.9-33,87.8C1.3,226.9,0,241.4,0,256.4c0,15.1,1.3,30.3,3.8,44.6
		c5.5,31.9,16.9,61.5,33,88.8h87.9v-89.7H94.2c-3.8-15.6-5.9-29.5-5.9-44.8c0-15.3,2.1-29.2,5.9-44.8H304L304,210.5z M419,300.2
		H214.4v89.7h262.1c16.1-27.3,27.5-57.4,33-89.3c1.1-6.2,1.9-12.1,2.5-19.9h-89C422,288.5,420.7,292.4,419,300.2L419,300.2z
		 M124.7,124.8h11.7V98.9c-3.9-1.6-15.6-4.2-19.5-4.8V52.5c31.2-21,66.3-35.3,105.2-40.8v69c-3.9,0.8-8,1.7-11.8,2.7l-7.7,2v39.4
		h11.7V93.1c3.9-1,7.4-1.8,11.1-2.6l8.4-1.6V0l-11.9,1.7c-38.7,5.6-76.2,20.3-108.5,42.5l-4.3,3v55.2l7.4,1.6l8.2,2.5
		C124.7,106.4,124.7,124.7,124.7,124.8L124.7,124.8z M214.4,388.7V210.5h-11.7v215.1l8.1,2c15.3,4.1,31.4,6.2,47.2,6.2
		c15.8,0,31.3-2.1,46.6-6.2l7.2-2v-35.8H304v28.1c-15.6,3.9-29.9,5.9-44.8,5.9c-14.9,0-29.2-2-44.8-5.9L214.4,388.7L214.4,388.7z
		 M304,93.1v207.1h7.8V85.4l-7.7-2c-3.8-1-7.9-1.9-11.8-2.7v-69c39,5.5,74.1,19.8,105.2,40.8V94c-3.9,0.6-11.7,3.3-15.6,4.8v201.3
		h7.8V106.4c3.9-1.1,8.7-2.2,10.2-2.5l9.3-1.6V47.1l-5-3C372,21.9,334.6,7.2,295.9,1.7L284.5,0v88.9l8.4,1.6
		C296.6,91.3,300.1,92.1,304,93.1L304,93.1z M136.4,300.3v-89.8h-11.7v264.7l5.6,2.9C169,500.3,213.3,512,258.1,512
		c44.8,0,88.4-11.7,127-33.9l4.7-2.9v-85.3H382v79.5c-39,20.7-78.2,32.6-122.8,32.6c-44.6,0-87.7-11.8-122.8-32.6
		C136.4,469.4,136.4,300.3,136.4,300.3L136.4,300.3z"/>
</g>
<g id="cu_business">
	<path d="M447,193.1C447,86.9,361,0.8,254.8,0.8C148.6,0.8,62.5,86.9,62.5,193.1c0,71.2,38.7,133.3,96.1,166.5v89.8l64.1,64.1h64.1
		l64.1-64.1v-89.8C408.4,326.4,447,264.2,447,193.1z M302.8,449.4h-96.1c-8.8,0-16-7.2-16-16c0-8.8,7.2-16,16-16h96.1
		c8.8,0,16,7.2,16,16C318.9,442.2,311.7,449.4,302.8,449.4z M318.9,340V193.1c17.7,0,32-14.3,32-32c0-17.7-14.3-32-32-32
		c-17.7,0-32.1,14.3-32.1,32v189.1c-10.4,2.1-21.1,3.2-32,3.2c-10.9,0-21.6-1.1-32-3.2V161c0-17.7-14.3-32-32-32
		c-17.7,0-32,14.3-32,32s14.3,32,32,32V340c-18.1-7.9-34.8-19.2-49.2-33.6c-30.3-30.3-46.9-70.5-46.9-113.3
		c0-42.8,16.7-83,46.9-113.3c30.3-30.3,70.5-46.9,113.3-46.9c42.8,0,83,16.7,113.3,46.9c30.3,30.3,46.9,70.5,46.9,113.3
		s-16.6,83-46.9,113.3C353.7,320.8,337,332.1,318.9,340z"/>
</g>
<g id="cu_ces">
	<path d="M227.9,514.4c9.7-202.3,49.6-446.5-51.5-491.2c9.7-1.9,52.5,9.7,84.6,71C297.9,11.5,361.1-4,404.9,4.8
		C253.2,15.4,279.4,60.8,304.7,514.1L227.9,514.4z"/>
	<path d="M236.3,391.2c1.2-17.7-25-50.9-77.5-73.3c-52.5-22.4-96.7-48.2-91.6-77.3c4.7-27,25.5-40.4,25.5-40.4s-18.3,21.8-17.5,41.8
		c1,26.8,42.8,45.7,80.7,57.4c37.9,11.7,91.4,47.4,91.4,47.4S235.1,408.9,236.3,391.2z"/>
	<path d="M127.9,220.8c0,0-1.7-5.9-7.2-5.9c-5.5,0-12.2,9.7-19.8,7.6c-7.6-2.1-7.6-9.7-10.1-10.5c-2.5-0.8-9.7,1.7-9.7,1.7
		s6.4-16.5,24.5-22.3c13.1-4.2,21.3,0.6,24,3.8C136.4,203.1,127.9,220.8,127.9,220.8z"/>
	<path d="M115.7,253.3c0,0,25.7,21.5,40.1,9.7c15.6-12.8,9.7-25.3,18.6-35.4c8.9-10.1,16-13.9,36.3,0.4c20.2,14.3-6.7-13.5-6.7-13.5
		l-14.8-10.5c0,0,4.6,9.7-0.8,9.3c-5.5-0.4-18.1-12.2-32.5-2.5c-14.3,9.7-13.9,24.4-23.6,34.6C127.8,249.8,115.7,253.3,115.7,253.3z
		"/>
	<path d="M240.9,319.2c9.8-68.7-48.8-115.1-83-139.2c-34.2-24.1-64.9-43.6-82-46c12.6-0.3,21.6,3.5,21.6,1.4
		c0-2.1-18.8-17.8-18.8-17.8s6.6,2.8,8.7,2.5c2.1-0.4,3.1-14,3.1-14s14,29,24.1,29c4.9,0,1.1-16.8,9.4-22.3
		c8.4-5.6,11.2-3.5,15.7-2.4c-4.9,2.1-10.8,4.9-11.8,11.5c-1,6.6,4.5,23.7,7.3,26.9c2.8,3.1,61.7,37,75.3,45.3
		c13.6,8.4,23.4,23.7,25.5,22.7c2.1-1,7.3-34.2,7.3-34.2l4.9,78.5C248.2,260.9,275.7,304.2,240.9,319.2z"/>
	<path d="M108.6,290.3c0,0-2.8,3.5-5.9,5.2c-3.1,1.8-22.3,7.4-24.1,25.5c-1.8,18.1,5.2,32.4,11.2,39.4c0-6.9,0.8-11.2,3.2-16.4
		c3-6.5,14.6-11.9,18.1-21.6c3.5-9.8-3.5-11.3-2.8-15.4c1.4-8.4,14.7-7.3,14.7-7.3L108.6,290.3z"/>
	<path d="M203.9,340.8c0,0-50.6-17.8-68.7,14c-18.1,31.7,9.4,60,31,64.2c-7.3-8.4-16.6-16.4-12.9-29.3c6-20.6,17.4-6.6,24.4-20.6
		c5.9-11.8-6.6-11.1-4.2-18.1c1-2.9,10.1-18.1,49.2,10.5C261.8,390,203.9,340.8,203.9,340.8z"/>
	<path d="M365,373c0,0,55.5-31.1,73.3,5.9c17.8,37-39.4,70.5-67.7,47.8c31.8,10.8,34.2-8,33.5-11.5c-0.7-3.5-4.2-8.7-8.7-10.8
		c-4.5-2.1-14-4.2-12.9-12.6c1.1-8.4,12.9-16.4,19.2-15c6.3,1.4,7-3,6.3-4.5C401.3,359,365,373,365,373z"/>
	<path d="M291.5,391.1c0,0,13.9,11.8,17.4,9.4c3.5-2.4,12.6-11.2,8.4-27.2c-4.2-16-3.1-31.4-3.1-31.4s10.8,23.7,16,26.9
		c5.2,3.1,5.6,4.5,8.7,2.1c3.1-2.5,19.5-15.4,25.5-18.9c5.9-3.5,34.9-19.2,46.7-31c11.9-11.9,14.6-17,11.5-28.3
		c-2.5-9.1-11.3-3.6-13.6-12.6c-2.1-8,1.8-15.3,2.1-20.2c0.4-4.9-0.3-15.3-8.7-22.3c15.3-2.4,39.1,0.3,47.8,14.6
		c9.7,15.9,5.2,35.9-19.2,62.8c-8.5,9.3-30.5,20.4-43.6,34.2c-26.5,27.9-60,36.8-79.9,68C291.7,442,291.5,391.1,291.5,391.1z"/>
	<path d="M284.8,241.1c2.1,15,4.9,21.6,7.3,22c2.4,0.4,11.8-14.9,22.7-25.4c10.1-9.8,28-12.4,63.1-35.3c15-9.7,42.2-24.4,70.1-53.7
		c-7.7,13.6-20.2,36.7-34.5,45c-19.2,11.2-70.1,43.6-90,65.6c-19.9,22-35.2,49.9-33.5,84.8c1.5,30.7-10.5-59.3-10.5-59.3
		S282.7,226.1,284.8,241.1z"/>
	<path d="M285.1,238.6c-0.7-39.4,35.5-96.5,42.2-107.5c10.1-16.4,59.7-70.1,97.7-54.4c-33.8-21.3-77.1,10.8-100.5,32.1
		c-17.2,15.6-30.4,46.8-35.2,44.7c-4.9-2.1-2.8-8-2.8-8l-21.3,54.8C265.3,200.3,285.9,278.1,285.1,238.6z"/>
	<path d="M322.3,42.5c13.3-16.3,44.7-27.7,52.7-15.5c-11.2-3.4-17,6.5-20.3,11.8c-8.3,13.3-3.3,17.3-3.3,26.8c0,12-12.7,9-16.4,15.5
		c-2.3,4.1-1.3,19.5,2.9,16.3c4.2-3.2,3.2,3.5,3.2,3.5l-11.3,11.5l-8.5-0.3c0,0,8-10.7,6.5-14.7c-1.5-4-12-5.5-13.7-5.7
		c-1.7-0.2-5.2-2.5-5.3-9.7"/>
	<path d="M341.8,242.4c0,0,12.2-4.5,17.1-0.2c5,4.3,5.5,7.8,5.4,9.9c-0.2,3.3-9.5,8.5-7.7,16.1c1.1,4.4,5.6,4.8,9.9,5.8
		c4.3,1,6.4,4.1,5.4,9.1c-1.1,5.5-7.2,10.7-15.9,11.3c-8.7,0.6-17.6,1.6-24.2-11.8c1,8.5,8,19.8,25.2,20.5
		c33,1.2,45.7-28.3,45.2-37.2c-0.4-8-5.6-18-15.5-23.1c-9.9-5.1-25.4-2.1-27.7-3.1c-2.3-1-3.9-7.6,0-11.1c3.9-3.5-11.1,0.2-11.1,0.2
		L341.8,242.4z"/>
	<path d="M416.7,191.6c0,0,3.7-2.8,6-2.8c2.3,0,4.2,1,7.2-0.6c2.9-1.6,7.3-4.9,11.9-3.1c4.5,1.8,4.4,5.8,3.2,7.9
		c-1.1,2.1-2.6,6.4-0.3,8.4c2.3,2.1,10.1,0.8,12.7,5.6c2.6,4.7,6,16.7-6.3,28.4c24.9-6.7,35.6-46.2,17.2-58.2
		c-18.4-12-30.6,4.4-33.5,3.4c-2.9-1-2.6-6.3-2.6-6.3l-10.4,3.1L416.7,191.6z"/>
	<path d="M296.8,176.3c0,0-3,19.3-0.5,13.8c2.5-5.5,7.1-5.6,8.5-3.5c1.4,2.2,6.3,14.4,15.7,18.2c19.3,7.9,38-11.6,46.8-10.2
		c-9-9.9-2.2-17.1-10.2-23.4c-20.7-16.3-45.9,8.5-49.3,7.2c-3.5-1.3-1.3-11.3-1.3-11.3L296.8,176.3z"/>
	<path d="M326.8,120.7c0,0-15.2,32.5-2.5,15.2c12.8-17.3,31.8-26.9,35.8-26.7c4.1,0.2,8.2-1.7,9.1,1.6c0.9,3.3-5,6.3-4.9,12.9
		c0.2,8.6,7,9.5,10.5,11.3c3.9,2,8.5,8.6,8.5,17.4c0,8.2-0.9,14-11.9,17.7c34.2,1.8,46.5-45.5,27.6-62.5c-20.1-18.1-40.8,1.7-42.6-3
		c-1.7-4.7,4.5-9.1,4.5-9.1l-9.6,3.1L326.8,120.7z"/>
	<path d="M433.3,144.9c11.8-6.8,25.6-45.5,8.2-64.6c-19-20.9-51.9-11.3-56.7-8.5c22.3-4.4,40.3,4.9,40.3,4.9s-9.2,9.3-7.8,17.7
		c1.6,8.8,11.6,11.5,16.3,16C438,114.7,444.5,126.8,433.3,144.9z"/>
	<path d="M389.9,4.9c0,0,5.8,3.4,6.6,6.5c0.8,3,2.4,10,1.7,13.1c-0.7,3.1-3.1,11.5-0.5,17.3c3.6,8.2,20.9,8.1,29.7,7.7
		c8.9-0.4,22.5,2.3,28.1,14.8c0,0-0.6-36.4-23.4-50C409.3,0.6,389.9,4.9,389.9,4.9z"/>
	<path d="M223.3,46.9c0,0-8.5-28.2,16.9-42.6c17.8-10.1,39.3-2,47.6,6c10.9,10.4,2.4,31.6-5.6,37.8c2-5.6,1.1-14.1-2.1-16.6
		c-4.9-3.7-9.2-3.2-11.7-0.1c-2.6,3-4.8,10.1-11.2,10.8c-6.4,0.6-11.6-4.7-15.3-5.6c-3.7-1-13.7-3.4-12.2,15.8
		C230.9,69.4,223.3,46.9,223.3,46.9z"/>
	<path d="M214.4,46.9c0,0-17.4-12.2-12.7-6.4c4.6,5.9,1.2,10.8-0.3,11.3c-1.5,0.5-13.5,23.7-13.5,23.7s-18.6,5.2-18.6,20.1
		c0,9.4,4.7,11,9.8,13.9c2.9,1.7,6.1,8.1,6.1,13.7c0,12.7-6.5,18.2-13,18.4c-8.1,0.3-24-11-9-35c-9.1,4.6-15.4,31.6,1.9,38.7
		c17.4,7.1,36-2,46-14.7c20.8-26.2-12.5-54.1-12.5-54.1s0.5-23,6.8-22.8c6.4,0.2,8.6,3.9,10.3,6.4C217.6,62.6,214.4,46.9,214.4,46.9
		z"/>
	<path d="M132.4,100.6c-7.8-6.9-24.5-35.5,11.5-64.9c27.7-22.5,50-9.3,50-9.3s15.9,23,9.5,16.6c-6.4-6.4-15.4-8.2-20.1-7.6
		c-3.9,0.5-8.6,5.4-8.3,7.6c1,7.3,1.6,13.5-2.7,19.6c-6.6,9.3-14.7,5.9-24,6.1c-9.3,0.3-13.5,2.7-16.6,8.1
		C128.6,81.9,128,89.3,132.4,100.6z"/>
	<path d="M86.8,114c0,0-34.4-7.9-18.1-49.9c13.5-34.8,40.6-37.5,60.9-40.6c-9.8,4.6-17.8,12.2-22,19.1c-4.2,6.8-3.9,13.2-3.2,19.3
		c0.7,6.1-0.2,22.8-9,29.9c-8.8,7.1-10.8,11-10.5,14C85.1,108.6,86.8,114,86.8,114z"/>
	<path d="M69.2,132.6c0,0-7.4,4.4-3,11c4.4,6.6,11.8,3.7,12.5,14.4c0.7,10.8-4.2,12.7-7.1,16.9c-3,4.2-7.6,12.2-4.7,17.6
		c2.9,5.4,5.9,6.4,9.3,4.9c-0.3,4.9-40.6,7.4-41.9-26.4C33.2,137.3,69.2,132.6,69.2,132.6z"/>
</g>
<g id="cu_copa">
	<polyline opacity="0.5" enable-background="new    " points="148.513,4.268 508.945,441.23 298.872,442.51 	"/>
	<path d="M402.738,387.468c58.655,0,106.207,26.982,106.207,60.263c0,33.287-47.552,60.27-106.207,60.27
		c-58.656,0-106.207-26.982-106.207-60.27C296.531,414.45,344.082,387.468,402.738,387.468z"/>
	<polyline opacity="0.5" enable-background="new    " points="413.462,4.268 3.612,441.23 242.502,442.51 	"/>
	<path d="M3.612,447.73C3.612,481.018,57.71,508,124.38,508c66.707,0,120.79-26.982,120.79-60.27
		c0-33.28-54.083-60.263-120.79-60.263C57.71,387.468,3.612,414.463,3.612,447.73z"/>
</g>
<g id="cu_dodge">
	<path d="M256.5,1C116.1,1,2.2,114.8,2.2,255.3c0,140.5,113.9,254.3,254.3,254.3c140.5,0,254.3-113.8,254.3-254.3
		C510.8,114.8,397,1,256.5,1z M256.5,57.4c30,0,54.3,24.3,54.3,54.3c0,30-24.3,54.3-54.3,54.3c-30,0-54.3-24.3-54.3-54.3
		C202.2,81.7,226.6,57.4,256.5,57.4z M59.6,207c0-30,24.3-54.3,54.3-54.3c30,0,54.3,24.3,54.3,54.3c0,30-24.3,54.3-54.3,54.3
		C83.9,261.3,59.6,237,59.6,207z M170.3,420.8c-30,0-54.3-24.3-54.3-54.3c0-30,24.3-54.3,54.3-54.3c30,0,54.3,24.3,54.3,54.3
		C224.6,396.5,200.3,420.8,170.3,420.8z M256.5,287.1c-17.6,0-31.8-14.2-31.8-31.8c0-17.6,14.2-31.8,31.8-31.8
		c17.6,0,31.8,14.2,31.8,31.8C288.3,272.9,274.1,287.1,256.5,287.1z M342.8,421.2c-30,0-54.3-24.3-54.3-54.3s24.3-54.3,54.3-54.3
		c30,0,54.3,24.3,54.3,54.3C397.1,396.9,372.8,421.2,342.8,421.2z M399.2,261.6c-30,0-54.3-24.3-54.3-54.3c0-30,24.3-54.3,54.3-54.3
		c30,0,54.3,24.3,54.3,54.3C453.5,237.3,429.1,261.6,399.2,261.6z"/>
</g>
<g id="cu_law">
	<path d="M273,64.8l-12.1,321.7h6.4c0,0,1.3,3.1-1.3,9.3c-2.6,6.2,1.3,0,6.4,6.2c5.1,6.2,5.1,9.3,8.9,15.4c3.8,6.2,3.8,6.2,8.9,9.3
		c5.1,3.1,6.4-1.5,10.2,6.2c3.8,7.7,6.4,9.3,3.8,15.4c-2.6,6.1-2.6,4.6-2.6,4.6h-91.8c0,0-4.5-4.6-4.5-7.7c0-3.1,4.5-14.6,7.6-16.2
		c3.2-1.5,10.9-3.9,13.4-6.9c2.6-3.1,14-20.8,18.5-22.4c4.5-1.5-1.3-9.3,0-13.1h7L236.6,63.2h36.3L273,64.8L273,64.8z"/>
	<polygon points="273,97.7 237.3,97.7 90.6,117.7 90.6,123.4 419.6,123.4 419.6,118.3 	"/>
	<g>
		<path d="M86.5,110.7c4.7,0,8.6,4.6,8.6,10.4c0,5.7-3.8,10.4-8.6,10.4c-4.7,0-8.6-4.6-8.6-10.4C77.9,115.4,81.7,110.7,86.5,110.7z"
			/>
		<path d="M80.2,135.7L38.1,305.5h45.2V136.5h7.1v168.9h44L92.9,136.5h3.2l51,168.2h3.2h19.1c-13.4,78.7-88.6,74.8-88.6,74.8
			c-66.9-2.3-79.1-74.1-79.1-74.1h4.4h18.5L77,136.5L80.2,135.7z"/>
	</g>
	<g>
		<path d="M427.1,112c4.7,0,8.6,4.6,8.6,10.4c0,5.7-3.8,10.4-8.6,10.4c-4.7,0-8.6-4.6-8.6-10.4C418.5,116.7,422.4,112,427.1,112z"/>
		<path d="M420.8,137.1l-42.1,169.7h45.2V137.8h7.1v168.9h44l-41.4-168.9h3.2l51,168.2h3.2h19.1c-13.4,78.7-88.6,74.8-88.6,74.8
			c-66.9-2.3-79.1-74-79.1-74h4.5h18.5l52.3-168.9L420.8,137.1z"/>
	</g>
</g>
<g id="cu_scst">
	<path d="M413.8,103.6L413.8,103.6L413.8,103.6z M414.9,255c51.8-49.5,76.9-98,60.2-127c-9.6-16.5-31.4-24.4-61.2-24.4v23.8
		c20.9,0,36.1,4.7,40.6,12.5c3.6,6.2,1.6,15.8-0.7,22.7c-4.4,13.2-14,29.1-27.8,45.8c-8.4,10.2-18,20.4-28.7,30.6
		c-14.8-12.8-31.2-25.4-49-37.7c-1.7-21.6-4.5-42.1-8.2-61.3c27.9-8.3,53.2-12.6,73.8-12.6l0-23.8h0c-22.4,0-49.3,4.5-78.8,13.1
		C318,47,288.6,1,255.1,1c-33.5,0-62.9,46-79.9,115.6c-29.5-8.6-56.4-13.1-78.8-13.1c-29.8,0-51.7,7.9-61.3,24.4
		c-16.7,29,8.4,77.5,60.2,127c-51.8,49.5-76.9,98-60.2,127c9.6,16.5,31.4,24.4,61.3,24.4c22.4,0,49.3-4.5,78.8-13.1
		c17,69.6,46.4,115.7,79.9,115.7c33.5,0,62.9-46,79.9-115.6c29.5,8.6,56.4,13.1,78.8,13.1c29.8,0,51.7-7.9,61.3-24.4
		C491.8,353,466.7,304.5,414.9,255z M379.4,255c-9.2,7.9-19.1,15.7-29.4,23.3c0.3-7.7,0.4-15.4,0.4-23.3c0-7.9-0.1-15.6-0.4-23.3
		C360.3,239.3,370.2,247.1,379.4,255z M317.3,362.6c-11.4-4.1-23.1-8.7-34.9-13.8c6.8-3.6,13.5-7.4,20.3-11.3
		c6.8-3.9,13.5-7.9,20-12C321.3,338.3,319.5,350.6,317.3,362.6z M290.8,316.8c-11.8,6.8-23.7,13.2-35.7,19.2
		c-12-5.9-23.9-12.4-35.7-19.2c-11.9-6.9-23.4-14-34.5-21.3c-0.8-13.3-1.2-26.8-1.2-40.5c0-13.7,0.4-27.3,1.2-40.5
		c11.1-7.3,22.6-14.5,34.5-21.3c11.8-6.8,23.7-13.2,35.7-19.2c12,5.9,23.9,12.4,35.7,19.2c11.9,6.9,23.4,14,34.5,21.3
		c0.8,13.2,1.2,26.8,1.2,40.5c0,13.8-0.4,27.3-1.2,40.5C314.2,302.8,302.7,310,290.8,316.8z M187.5,325.5c6.5,4.1,13.2,8.1,20,12
		c6.8,3.9,13.6,7.7,20.3,11.3c-11.8,5.1-23.4,9.8-34.9,13.8C190.8,350.6,188.9,338.3,187.5,325.5z M160.3,278.3
		c-10.4-7.6-20.2-15.4-29.4-23.3c9.2-7.9,19.1-15.7,29.4-23.3c-0.3,7.6-0.4,15.4-0.4,23.3C159.9,262.9,160,270.6,160.3,278.3z
		 M193,147.4c11.4,4,23.1,8.7,34.9,13.8c-6.8,3.6-13.5,7.3-20.3,11.3c-6.8,3.9-13.5,7.9-20,12C188.9,171.7,190.8,159.3,193,147.4z
		 M302.7,172.5c-6.8-3.9-13.6-7.7-20.3-11.3c11.8-5.1,23.4-9.8,34.8-13.8c2.2,11.9,4,24.3,5.5,37.1
		C316.2,180.4,309.5,176.4,302.7,172.5z M210.1,83.8c7.6-20.3,16.5-36.5,25.8-47c4.8-5.4,12.1-11.9,19.2-11.9
		c7.2,0,14.4,6.5,19.2,11.9c9.3,10.5,18.2,26.7,25.8,47c4.6,12.3,8.6,25.8,12.1,40.2c-18.4,6.4-37.6,14.3-57.2,23.6
		c-19.6-9.3-38.8-17.2-57.2-23.6C201.4,109.5,205.4,96.1,210.1,83.8z M84.3,208.4c-13.8-16.7-23.4-32.6-27.8-45.8
		c-2.3-6.9-4.3-16.4-0.7-22.7c4.5-7.9,19.7-12.5,40.7-12.5l0,0c20.6,0,45.9,4.3,73.8,12.6c-3.7,19.2-6.4,39.7-8.2,61.3
		c-17.8,12.3-34.3,25-49,37.7C102.3,228.8,92.7,218.5,84.3,208.4z M96.4,382.6c-20.9,0-36.1-4.7-40.7-12.5
		c-3.6-6.2-1.6-15.7,0.7-22.7c4.4-13.2,14-29.1,27.8-45.8c8.4-10.2,18-20.4,28.7-30.6c14.8,12.8,31.2,25.4,49,37.7
		c1.8,21.6,4.5,42.1,8.2,61.3C142.3,378.3,117,382.6,96.4,382.6z M300.2,426.2c-7.6,20.3-16.5,36.5-25.8,47
		c-4.8,5.4-12.1,11.9-19.2,11.9c-7.1,0-14.4-6.5-19.2-11.9c-9.3-10.4-18.2-26.7-25.8-47c-4.6-12.3-8.7-25.8-12.1-40.2
		c18.4-6.4,37.6-14.3,57.2-23.6c19.6,9.3,38.8,17.2,57.2,23.6C308.8,400.5,304.8,413.9,300.2,426.2z M453.8,347.4
		c2.3,6.9,4.3,16.4,0.7,22.6c-4.5,7.9-19.7,12.5-40.6,12.5c-20.6,0-45.9-4.4-73.8-12.6c3.7-19.2,6.4-39.7,8.2-61.3
		c17.8-12.3,34.3-25,49-37.7c10.7,10.2,20.4,20.4,28.7,30.6C439.7,318.3,449.3,334.2,453.8,347.4z"/>
</g>
<g id="cu_wilkinson">
	<path d="M383.8,64.6c-49.1,0-93.8,18.5-127.7,48.8C222.2,83,177.4,64.6,128.3,64.6S34.5,83,0.6,113.4v8.6v38.4v191.6v40.4v6.6
		c0.3,0.3,0.7,0.6,1,0.9c8.2,7.2,17,13.8,26.3,19.5c9.4-7.6,19.7-14.2,30.7-19.5c21.1-10.2,44.7-16,69.7-16c25,0,48.6,5.7,69.7,16
		c11,5.4,21.3,11.9,30.7,19.5c1.8,1.5,3.6,3,5.4,4.6c8.1,7.2,15.4,15.1,21.9,23.8c6.5-8.6,13.9-16.6,22-23.8
		c1.8-1.6,3.6-3.1,5.4-4.6c9.4-7.6,19.7-14.2,30.7-19.5c21.1-10.2,44.7-16,69.7-16c25,0,48.6,5.7,69.7,16
		c11,5.4,21.3,11.9,30.7,19.5c9.4-5.7,18.1-12.3,26.3-19.5c0.3-0.3,0.7-0.6,1-0.9v-6.6v-40.4V160.3v-38.4v-8.6
		C477.6,83,432.9,64.6,383.8,64.6z M128.3,352c-34.9,0-67.6,9.3-95.8,25.7V128.4c26.7-20.1,59.8-31.9,95.8-31.9
		c36,0,69.1,11.9,95.8,31.9v249.2C195.9,361.3,163.2,352,128.3,352z M383.8,352c-34.9,0-67.6,9.3-95.8,25.7V128.4
		c26.7-20,59.8-31.9,95.8-31.9c35.9,0,69.1,11.9,95.8,31.9v249.2C451.4,361.3,418.7,352,383.8,352z"/>
</g>
<g id="cu_crean">
	<path d="M391.4,509.5c-0.1,0-0.2,0-0.3,0c-7.6-0.2-13.6-6.4-13.5-14c0.1-2,2.1-200.3-123-232c-63.9-14.8-109.7-63.3-132.4-140.2
		c-16.6-56.4-14.9-107.8-14.9-110c0.3-7.6,6.8-13.4,14.3-13.2c7.6,0.3,13.5,6.7,13.3,14.2c-0.1,1.9-5.2,191.9,126.2,222.4
		C407.7,273.8,405.3,486.9,405.2,496C405,503.5,398.9,509.5,391.4,509.5z"/>
	<path d="M121.2,509.5c-7.6,0-13.7-6.1-13.8-13.7c0-9.2,0.5-225.1,147.5-259.1C380,207.7,377.7,16,377.6,14
		c-0.1-7.6,5.9-13.9,13.5-14c0.1,0,0.2,0,0.3,0c7.5,0,13.6,6,13.8,13.5c0.2,8.8,2.6,216.1-144.1,250
		c-125.5,29-126.2,230.1-126.2,232.1C135,503.3,128.8,509.4,121.2,509.5C121.2,509.5,121.2,509.5,121.2,509.5z"/>
	<path d="M342.9,199.7H168c-7.6,0-13.8-6.2-13.8-13.8c0-7.6,6.2-13.8,13.8-13.8h174.9c7.6,0,13.8,6.2,13.8,13.8
		C356.7,193.5,350.5,199.7,342.9,199.7z"/>
	<path d="M371,141.1H141.6c-7.6,0-13.8-6.2-13.8-13.8c0-7.6,6.2-13.8,13.8-13.8H371c7.6,0,13.8,6.2,13.8,13.8
		C384.8,135,378.6,141.1,371,141.1z"/>
	<path d="M364.6,389.7H143.2c-7.6,0-13.8-6.2-13.8-13.8c0-7.6,6.2-13.8,13.8-13.8h221.4c7.6,0,13.8,6.2,13.8,13.8
		C378.4,383.6,372.2,389.7,364.6,389.7z"/>
	<path d="M381.1,82.6h-253c-7.6,0-13.8-6.2-13.8-13.8c0-7.6,6.2-13.8,13.8-13.8h253c7.6,0,13.8,6.2,13.8,13.8
		C394.8,76.5,388.7,82.6,381.1,82.6z"/>
	<path d="M377.5,451.3H130.3c-7.6,0-13.8-6.2-13.8-13.8c0-7.6,6.2-13.8,13.8-13.8h247.2c7.6,0,13.8,6.2,13.8,13.8
		C391.2,445.2,385.1,451.3,377.5,451.3z"/>
	<path d="M341.8,328.2H173.7c-7.6,0-13.8-6.2-13.8-13.8s6.2-13.8,13.8-13.8h168.1c7.6,0,13.8,6.2,13.8,13.8
		C355.6,322,349.4,328.2,341.8,328.2z"/>
</g>
<g id="blackboard">
	<path d="M50.4,174.2C47.2,112.2,1,139.3,0,118.1c-0.5-8.2,4.5-6.7,7.7-7c1.7,0,5,1.2,26.2,0.2c39.1-2.2,76.5-5.7,113.9-7.7
		c110.9-6,114.4,60.8,114.9,70.6c1.5,29.4-13.5,54.6-45.4,66.3v1.7c56.1,10,73.8,33.7,76,74.3c3.2,60.3-35.4,100-108.7,104
		c-66.8,3.7-89.8,3.2-112.4,4.5c-11.5,0.5-22.7,3-32.4,3.5c-9.7,0.5-14.7,0.7-15-5.7c-0.7-14.7,38.9-5.5,36.7-49.4L50.4,174.2
		L50.4,174.2z M108.5,220.1c1.2,21.2,6.2,24.2,32.4,24.4l26.2-1.5c34.2-1.7,46.4-20.4,44.6-53.1c-2.5-42.4-36.6-68.3-77.3-66.1
		c-29.4,1.5-30.2,18-28.7,44.1L108.5,220.1L108.5,220.1z M115.5,350.5c2.2,42.4,14.5,54.9,58.3,52.4c44.1-2.5,65.3-32.9,62.8-77
		c-1.5-26.2-16.7-66.1-98.2-61.6c-26.2,1.5-27.2,13-25.9,35.7L115.5,350.5L115.5,350.5z"/>
	<path d="M321.9,138.1c-1.7-32.7-28.4-11.5-29.4-27.9c-0.5-11.5,20.9-6,61.8-34.4c3.2-1.7,4.7-3.5,8-3.7c5-0.2,3.7,9.7,4,13
		l9.7,177.8c17-17.2,35.9-32.9,58.6-34.2c52.1-2.7,74.3,41.6,75.8,72.8c3.7,68.6-33.4,106.5-88.8,109.5c-40.6,2.2-54.9-15-61.3-14.7
		c-8.2,0.5-12,18.7-21.9,19.2c-3.2,0.2-5-1.2-5.2-4.7c-0.2-3.2,2.5-13.2,1.2-36.2L321.9,138.1L321.9,138.1z M380.7,350.8
		c2,37.4,36.6,43.9,49.9,43.1c37.4-2,43.6-38.4,42.1-67.6c-1.7-34.2-19.9-65.8-62.3-63.6c-13,0.7-33.7,10-32.9,26.4L380.7,350.8
		L380.7,350.8z"/>
</g>
<g id="orgsync">
	<path d="M461.7,406.3c-48.3,67.4-117,100.4-204.5,100.4c-80.3,0-143.3-23.9-187.9-74.1C24,382.4,1.4,322.5,1.4,255.7
		c0-46.4,11.5-89.4,31.9-128.6C55.9,88,87.9,58.7,127,35.9C166.2,12,209.2,1,257.5,1h1.9c44.6,0,83.7,11,121,29.3
		c31.1,17.2,59.3,41.1,81.3,72.7c26.3-15.3,44.6-28.2,48.8-30.1c-4.3,11-4.3,217.9-4.3,217.9l-186-105.5c0,0,20.9-11.5,46.4-26.3
		c-16.6-14.8-31.1-26.3-46.4-33.6c-18.3-7.2-38.6-11-61.2-11c-42.9,0-78.4,12.9-104.1,39.2c-26.3,27.6-39.2,61.2-39.2,104.1
		c0,41.1,12.9,74.6,39.2,100.4c23.9,26.3,57.4,39.2,98.5,39.2c50.2,0,91.3-18.3,119.4-55.8L461.7,406.3z"/>
</g>
</svg>
